<?xml version="1.0" encoding="UTF-8"?>
<!DOCTYPE svg PUBLIC "-//W3C//DTD SVG 1.1//EN" "http://www.w3.org/Graphics/SVG/1.1/DTD/svg11.dtd">
<svg version="1.1" xmlns="http://www.w3.org/2000/svg" xmlns:xlink="http://www.w3.org/1999/xlink" x="0" y="0" width="30" height="30" viewBox="0, 0, 30, 30">
  <g id="Background">
    <rect x="0" y="0" width="30" height="30" fill="#000000" fill-opacity="0"/>
  </g>
  <g id="Calque_2">
    <g>
      <path d="M14.875,29 C7.143,29 0.875,22.732 0.875,15 C0.875,7.268 7.143,1 14.875,1 C22.607,1 28.875,7.268 28.875,15 C28.875,22.732 22.607,29 14.875,29 z" fill="#EAEAEA"/>
      <path d="M14.875,29 C7.143,29 0.875,22.732 0.875,15 C0.875,7.268 7.143,1 14.875,1 C22.607,1 28.875,7.268 28.875,15 C28.875,22.732 22.607,29 14.875,29 z" fill-opacity="0" stroke="#404040" stroke-width="2"/>
    </g>
  </g>
  <g id="Calque_1">
    <text transform="matrix(1, 0, 0, 1, 15, 13.563)">
      <tspan x="-11.685" y="4.562" font-family="Verdana-Bold" font-size="11.5" fill="#0070C4">exp</tspan>
    </text>
  </g>
</svg>
