<?xml version="1.0" encoding="UTF-8"?>
<!DOCTYPE svg PUBLIC "-//W3C//DTD SVG 1.1//EN" "http://www.w3.org/Graphics/SVG/1.1/DTD/svg11.dtd">
<svg version="1.1" xmlns="http://www.w3.org/2000/svg" xmlns:xlink="http://www.w3.org/1999/xlink" x="0" y="0" width="500" height="500" viewBox="0, 0, 500, 500">
  <g id="Layer_19_Copy_Copy">
    <path d="M443.989,250 C443.989,357.137 357.137,443.989 250,443.989 C142.863,443.989 56.011,357.137 56.011,250 C56.011,142.863 142.863,56.011 250,56.011 C357.137,56.011 443.989,142.863 443.989,250 z" fill="#E1E1E1" id="imagebot_10"/>
    <path d="M250,51.156 C140.3,51.156 51.156,140.3 51.156,250 C51.156,359.699 140.3,448.844 250,448.844 C359.699,448.844 448.844,359.699 448.844,250 C448.844,140.3 359.699,51.156 250,51.156 z M250,71.777 C348.548,71.777 428.223,151.452 428.223,250 C428.223,348.548 348.548,428.223 250,428.223 C151.452,428.223 71.777,348.548 71.777,250 C71.777,151.452 151.452,71.777 250,71.777 z M217.988,118.419 L217.988,230.23 L167.615,230.23 L250,308.884 L332.385,230.23 L282.011,230.23 L282.011,118.419 L217.988,118.419 z M154.358,312.583 L154.358,370.877 L345.608,370.877 L345.608,312.583 L314.776,312.583 L314.776,343.318 L185.257,343.318 L185.257,312.583 L154.358,312.583 z" fill="#7B7B7B" id="imagebot_6"/>
  </g>
</svg>
