<?xml version="1.0" encoding="UTF-8"?>
<!DOCTYPE svg PUBLIC "-//W3C//DTD SVG 1.1//EN" "http://www.w3.org/Graphics/SVG/1.1/DTD/svg11.dtd">
<svg version="1.1" xmlns="http://www.w3.org/2000/svg" xmlns:xlink="http://www.w3.org/1999/xlink" x="0" y="0" width="500" height="500" viewBox="0, 0, 500, 500">

  <g id="Layer_19">
    <g>
      <path d="M173.227,294.225 L152.354,294.225 L152.354,262.108 Q152.354,258.188 151.95,254.296 Q151.547,250.404 150.567,248.559 Q149.413,246.425 147.194,245.445 Q144.974,244.465 140.995,244.465 Q138.17,244.465 135.258,245.387 Q132.346,246.31 128.944,248.328 L128.944,294.225 L108.187,294.225 L108.187,204.507 L128.944,204.507 L128.944,236.623 Q134.48,232.299 139.582,229.992 Q144.685,227.686 150.913,227.686 Q161.407,227.686 167.317,233.798 Q173.227,239.91 173.227,252.076 z" fill="#747474"/>
      <path d="M233.711,293.648 Q230.367,294.513 226.619,295.003 Q222.871,295.493 217.451,295.493 Q205.343,295.493 199.433,290.592 Q193.523,285.691 193.523,273.813 L193.523,243.542 L184.989,243.542 L184.989,229.473 L193.523,229.473 L193.523,210.965 L214.28,210.965 L214.28,229.473 L233.711,229.473 L233.711,243.542 L214.28,243.542 L214.28,266.491 Q214.28,269.892 214.338,272.429 Q214.395,274.966 215.26,276.985 Q216.068,279.003 218.114,280.185 Q220.161,281.367 224.082,281.367 Q225.697,281.367 228.32,280.675 Q230.944,279.983 231.981,279.406 L233.711,279.406 z" fill="#747474"/>
      <path d="M309.418,248.328 L309.418,294.225 L288.545,294.225 L288.545,261.878 Q288.545,257.15 288.315,253.834 Q288.084,250.519 287.046,248.443 Q286.008,246.367 283.904,245.416 Q281.799,244.465 277.994,244.465 Q274.938,244.465 272.055,245.704 Q269.172,246.944 266.865,248.328 L266.865,294.225 L246.108,294.225 L246.108,229.473 L266.865,229.473 L266.865,236.623 Q272.228,232.414 277.129,230.05 Q282.03,227.686 287.969,227.686 Q294.369,227.686 299.27,230.54 Q304.171,233.394 306.939,238.929 Q313.166,233.682 319.047,230.684 Q324.928,227.686 330.579,227.686 Q341.073,227.686 346.522,233.971 Q351.97,240.256 351.97,252.076 L351.97,294.225 L331.098,294.225 L331.098,261.878 Q331.098,257.092 330.896,253.806 Q330.694,250.519 329.656,248.443 Q328.676,246.367 326.543,245.416 Q324.409,244.465 320.546,244.465 Q317.951,244.465 315.472,245.358 Q312.993,246.252 309.418,248.328 z" fill="#747474"/>
      <path d="M391.813,294.225 L371.056,294.225 L371.056,204.507 L391.813,204.507 z" fill="#747474"/>
    </g>
  </g>
</svg>
