<?xml version="1.0" encoding="UTF-8"?>
<!DOCTYPE svg PUBLIC "-//W3C//DTD SVG 1.1//EN" "http://www.w3.org/Graphics/SVG/1.1/DTD/svg11.dtd">
<svg version="1.1" xmlns="http://www.w3.org/2000/svg" xmlns:xlink="http://www.w3.org/1999/xlink" x="0" y="0" width="500" height="500" viewBox="0, 0, 500, 500">
  <g id="Layer_19_Copy_Copy">
    <g>
      <path d="M174.266,188.302 L153.676,188.302 L153.676,156.621 Q153.676,152.753 153.278,148.914 Q152.88,145.075 151.913,143.255 Q150.775,141.15 148.585,140.183 Q146.396,139.216 142.471,139.216 Q139.684,139.216 136.812,140.126 Q133.939,141.036 130.583,143.027 L130.583,188.302 L110.107,188.302 L110.107,99.799 L130.583,99.799 L130.583,131.481 Q136.044,127.215 141.077,124.94 Q146.111,122.665 152.254,122.665 Q162.606,122.665 168.436,128.694 Q174.266,134.723 174.266,146.724 z" fill="#747474"/>
      <path d="M233.932,187.734 Q230.633,188.587 226.936,189.07 Q223.239,189.554 217.892,189.554 Q205.948,189.554 200.117,184.719 Q194.287,179.884 194.287,168.167 L194.287,138.306 L185.869,138.306 L185.869,124.428 L194.287,124.428 L194.287,106.17 L214.764,106.17 L214.764,124.428 L233.932,124.428 L233.932,138.306 L214.764,138.306 L214.764,160.944 Q214.764,164.3 214.821,166.802 Q214.877,169.305 215.731,171.296 Q216.527,173.286 218.546,174.452 Q220.565,175.618 224.433,175.618 Q226.026,175.618 228.614,174.936 Q231.202,174.253 232.225,173.685 L233.932,173.685 z" fill="#747474"/>
      <path d="M308.613,143.027 L308.613,188.302 L288.023,188.302 L288.023,156.394 Q288.023,151.729 287.796,148.459 Q287.568,145.188 286.544,143.141 Q285.521,141.093 283.445,140.155 Q281.369,139.216 277.615,139.216 Q274.6,139.216 271.756,140.439 Q268.912,141.662 266.637,143.027 L266.637,188.302 L246.161,188.302 L246.161,124.428 L266.637,124.428 L266.637,131.481 Q271.927,127.329 276.761,124.997 Q281.596,122.665 287.455,122.665 Q293.768,122.665 298.603,125.48 Q303.437,128.296 306.168,133.756 Q312.311,128.58 318.112,125.622 Q323.914,122.665 329.488,122.665 Q339.84,122.665 345.215,128.864 Q350.59,135.064 350.59,146.724 L350.59,188.302 L330,188.302 L330,156.394 Q330,151.673 329.801,148.431 Q329.602,145.188 328.578,143.141 Q327.611,141.093 325.506,140.155 Q323.402,139.216 319.591,139.216 Q317.031,139.216 314.586,140.098 Q312.14,140.979 308.613,143.027 z" fill="#747474"/>
      <path d="M389.893,188.302 L369.417,188.302 L369.417,99.799 L389.893,99.799 z" fill="#747474"/>
      <path d="M288.109,260.711 L257.792,260.711 L257.792,290.743 L242.208,290.743 L242.208,260.711 L211.891,260.711 L211.891,245.467 L242.208,245.467 L242.208,215.436 L257.792,215.436 L257.792,245.467 L288.109,245.467 z" fill="#747474"/>
      <path d="M231.23,373.809 Q231.23,379.383 229.239,384.246 Q227.249,389.109 223.324,392.465 Q219.172,396.049 213.313,398.011 Q207.455,399.973 198.809,399.973 Q192.951,399.973 187.775,399.547 Q182.599,399.12 178.674,398.324 L178.674,381.146 L180.722,381.146 Q183.452,382.17 186.41,383.052 Q189.367,383.933 193.975,383.933 Q199.947,383.933 203.161,382.341 Q206.374,380.748 207.739,377.904 Q209.047,375.117 209.218,371.79 Q209.389,368.462 209.389,363.286 L209.389,329.557 L189.993,329.557 L189.993,313.973 L231.23,313.973 z" fill="#747474"/>
      <path d="M319.563,372.046 Q319.563,384.559 308.955,392.38 Q298.347,400.201 280.146,400.201 Q269.623,400.201 261.802,398.352 Q253.982,396.504 247.156,393.66 L247.156,373.354 L249.545,373.354 Q256.314,378.757 264.703,381.658 Q273.093,384.559 280.828,384.559 Q282.819,384.559 286.061,384.218 Q289.303,383.877 291.351,383.08 Q293.853,382.056 295.474,380.521 Q297.096,378.985 297.096,375.97 Q297.096,373.183 294.735,371.164 Q292.375,369.145 287.824,368.064 Q283.047,366.927 277.728,365.931 Q272.41,364.936 267.746,363.4 Q257.053,359.931 252.361,353.987 Q247.668,348.043 247.668,339.227 Q247.668,327.396 258.276,319.917 Q268.884,312.437 285.549,312.437 Q293.91,312.437 302.072,314.058 Q310.234,315.679 316.207,318.125 L316.207,337.634 L313.875,337.634 Q308.756,333.539 301.333,330.78 Q293.91,328.022 286.175,328.022 Q283.445,328.022 280.743,328.391 Q278.041,328.761 275.539,329.785 Q273.32,330.638 271.728,332.373 Q270.135,334.108 270.135,336.326 Q270.135,339.682 272.695,341.474 Q275.254,343.265 282.364,344.744 Q287.028,345.711 291.322,346.621 Q295.617,347.531 300.565,349.124 Q310.291,352.309 314.927,357.798 Q319.563,363.286 319.563,372.046 z" fill="#747474"/>
    </g>
  </g>
</svg>
