<?xml version="1.0" encoding="UTF-8"?>
<!DOCTYPE svg PUBLIC "-//W3C//DTD SVG 1.1//EN" "http://www.w3.org/Graphics/SVG/1.1/DTD/svg11.dtd">
<svg version="1.1" xmlns="http://www.w3.org/2000/svg" xmlns:xlink="http://www.w3.org/1999/xlink" x="0" y="0" width="500" height="500" viewBox="0, 0, 500, 500">
  <g id="Calque_2">
    <path d="M436,251.522 C436,352.854 353.854,435 252.522,435 C151.191,435 69.045,352.854 69.045,251.522 C69.045,150.191 151.191,68.045 252.522,68.045 C353.854,68.045 436,150.191 436,251.522 z" fill-opacity="0" stroke="#8D8D8D" stroke-width="28" id="path3026"/>
    <path d="M248.442,274.788 L248.331,201.667 L247.202,198.068 C245.092,191.343 241.864,186.252 236.345,180.949 C227.474,172.425 215.733,167.442 200.869,165.893 C185.443,164.285 166.142,169.136 152.907,177.947 C145.498,182.879 142.632,186.617 141.832,192.392 C141.604,194.036 141.495,221.696 141.561,260.933 C141.658,318.625 141.747,326.867 142.288,327.942 C143.483,330.318 145.371,329.802 153.005,325.015 C161.429,319.732 167.255,317.113 175.052,315.103 C181.95,313.324 187.535,312.618 194.693,312.618 C211.745,312.618 226.158,318.538 237.093,330.032 C241.583,334.752 243.767,338.275 246.509,345.225 C247.26,347.127 248.002,348.459 248.2,348.261 C248.396,348.065 248.503,315.447 248.442,274.788 z M257.929,347.251 C261.237,338.518 263.9,334.145 269.078,328.942 C277.098,320.882 287.911,315.404 299.821,313.365 C304.029,312.645 305.856,312.556 312.694,312.74 C321.448,312.975 327.301,313.938 334.538,316.333 C338.377,317.603 347.042,321.685 349.634,323.444 C353.566,326.112 359.555,329.373 360.524,329.373 C362.278,329.373 363.027,328.124 363.399,324.582 C363.828,320.491 363.837,197.353 363.408,193.277 C362.767,187.174 359.848,183.076 352.742,178.301 C340.762,170.251 325.806,165.798 310.651,165.772 C303.856,165.76 300.675,166.117 294.304,167.609 C274.995,172.129 260.919,184.673 257.4,200.497 L256.504,204.528 L256.583,258.266 C256.626,287.822 256.672,320.234 256.685,330.292 C256.698,340.51 256.867,348.579 257.067,348.579 C257.265,348.579 257.653,347.982 257.929,347.251 z" fill="#898989" id="path3010"/>
  </g>
</svg>
