<?xml version="1.0" encoding="UTF-8"?>
<!DOCTYPE svg PUBLIC "-//W3C//DTD SVG 1.1//EN" "http://www.w3.org/Graphics/SVG/1.1/DTD/svg11.dtd">
<svg version="1.1" xmlns="http://www.w3.org/2000/svg" xmlns:xlink="http://www.w3.org/1999/xlink" x="0" y="0" width="500" height="500" viewBox="0, 0, 500, 500">

  <g id="Layer_23">
    <g>
      <path d="M397.778,209.718 C374.534,145.856 314.225,106.2 249.989,106.2 C235.932,106.2 221.69,108.132 207.604,112.091 C214.835,107.879 218.284,98.928 215.326,90.803 C212.006,81.676 201.821,76.927 192.695,80.248 L176.103,86.287 C166.976,89.609 162.226,99.794 165.548,108.919 C168.488,116.999 176.812,121.637 185.016,120.29 C110.813,153.863 73.907,239.497 102.221,317.293 C125.468,381.159 185.768,420.812 250.013,420.812 C267.868,420.812 286.038,417.745 303.787,411.285 C385.401,381.577 427.485,291.335 397.778,209.718 z M368.523,318.775 C353.759,350.433 327.552,374.449 294.726,386.395 C280.272,391.658 265.226,394.324 250.012,394.324 C236.798,394.324 223.675,392.312 211.004,388.343 C198.448,384.409 186.589,378.635 175.755,371.181 C153.293,355.728 136.474,333.961 127.108,308.233 C115.161,275.408 116.711,239.896 131.475,208.238 C146.238,176.578 172.446,152.563 205.271,140.616 C219.726,135.355 234.772,132.686 249.988,132.686 C263.196,132.686 276.32,134.7 288.991,138.67 C301.547,142.604 313.407,148.378 324.242,155.833 C346.704,171.287 363.528,193.053 372.89,218.777 C384.837,251.602 383.287,287.116 368.523,318.775 z M285.709,240.394 C284.664,238.9 283.548,237.472 282.331,236.149 L313.338,174.068 L313.88,172.984 L265.993,225.265 C261.491,223.62 256.701,222.722 251.814,222.723 C250.611,222.723 249.404,222.779 248.193,222.887 L223.509,186.34 L228.091,230.207 C223.812,233.197 220.206,236.931 217.39,241.16 L192.069,236.257 L212.102,252.502 C210.671,257.378 210.128,262.54 210.589,267.743 L174.041,292.427 L217.928,287.844 C218.815,289.112 219.762,290.326 220.776,291.473 L189.757,355.253 L192.198,352.545 L236.874,302.699 C241.596,304.528 246.659,305.514 251.821,305.514 C253.024,305.514 254.23,305.456 255.441,305.35 L280.128,341.897 L275.544,298.029 C279.826,295.038 283.43,291.305 286.247,287.077 L311.569,291.978 L291.534,275.736 C292.964,270.86 293.507,265.698 293.046,260.497 L329.596,235.809 L285.709,240.394 z M224.966,282.861 C223.353,280.56 222.006,278.047 221.018,275.328 C218.024,267.102 218.413,258.201 222.113,250.267 C225.814,242.331 232.382,236.312 240.609,233.317 C244.232,231.999 248.002,231.33 251.817,231.33 L251.819,231.33 C254.47,231.33 257.067,231.661 259.57,232.276 L238.238,255.568 L224.966,282.861 z M243.283,258.319 C244.926,256.405 247.246,255.063 249.951,254.724 C252.569,254.4 255.072,255.076 257.098,256.438 C259.534,258.072 261.28,260.71 261.67,263.852 C261.921,265.867 261.553,267.802 260.762,269.523 C259.207,272.429 256.068,275.137 252.546,275.576 C249.866,275.909 247.308,275.191 245.257,273.767 C242.892,272.119 241.206,269.527 240.822,266.446 C240.463,263.555 241.612,260.448 243.283,258.319 z M281.523,277.971 C277.824,285.906 271.255,291.923 263.029,294.917 C259.405,296.236 255.634,296.907 251.821,296.907 C248.842,296.907 245.933,296.476 243.144,295.703 L264.475,271.903 L278.114,244.596 C279.978,247.099 281.516,249.882 282.617,252.909 C285.613,261.135 285.224,270.035 281.523,277.971 z M200.92,165.221 L200.463,163.965 L208.835,160.92 L226.47,171.535 L223.409,163.122 C222.921,161.784 222.471,160.823 222.058,160.234 C221.643,159.646 221.183,159.264 220.684,159.091 C220.292,158.964 219.768,158.921 219.11,158.964 C218.452,159.01 217.927,159.067 217.538,159.136 L217.094,157.914 L226.638,154.439 L227.083,155.661 C226.803,155.8 226.407,156.009 225.893,156.292 C225.379,156.574 224.962,156.956 224.642,157.439 C224.358,157.86 224.261,158.446 224.347,159.188 C224.434,159.931 224.719,160.966 225.203,162.294 L230.987,178.189 L228.198,179.206 L208.082,167.052 L211.881,177.491 C212.353,178.786 212.798,179.742 213.217,180.351 C213.634,180.964 214.094,181.356 214.594,181.528 C214.96,181.655 215.485,181.695 216.165,181.65 C216.847,181.604 217.382,181.543 217.77,181.474 L218.214,182.696 L208.654,186.175 L208.208,184.953 C208.606,184.774 209.044,184.528 209.528,184.215 C210.012,183.902 210.387,183.557 210.65,183.179 C210.947,182.726 211.062,182.165 210.99,181.501 C210.92,180.834 210.621,179.781 210.096,178.338 L206.262,167.805 C206.073,167.283 205.812,166.816 205.481,166.41 C205.149,166.006 204.75,165.699 204.283,165.487 C203.789,165.266 203.267,165.138 202.717,165.109 C202.165,165.077 201.566,165.117 200.92,165.221 z M298.638,359.382 C298.988,360.343 299.103,361.356 298.983,362.42 C298.86,363.485 298.526,364.453 297.982,365.326 C297.384,366.291 296.602,367.149 295.634,367.904 C294.667,368.659 293.45,369.303 291.989,369.837 C290.629,370.331 289.302,370.623 288.002,370.709 C286.703,370.798 285.563,370.761 284.58,370.598 L283.897,372.087 L282.565,372.573 L279.434,364.609 L280.782,364.118 C281.362,364.77 282.044,365.437 282.823,366.113 C283.603,366.789 284.422,367.353 285.283,367.796 C286.174,368.27 287.097,368.582 288.047,368.734 C288.996,368.886 289.996,368.77 291.052,368.385 C292.474,367.869 293.435,367.123 293.941,366.153 C294.445,365.182 294.506,364.166 294.121,363.111 C293.805,362.243 293.217,361.63 292.359,361.273 C291.502,360.915 290.321,360.766 288.816,360.827 C287.836,360.867 286.933,360.896 286.108,360.924 C285.283,360.949 284.501,360.954 283.761,360.939 C282.049,360.888 280.63,360.439 279.5,359.592 C278.37,358.749 277.557,357.638 277.058,356.268 C276.742,355.401 276.626,354.497 276.71,353.559 C276.794,352.622 277.082,351.703 277.571,350.803 C278.043,349.957 278.748,349.149 279.687,348.379 C280.627,347.612 281.728,346.997 282.992,346.536 C284.227,346.086 285.444,345.841 286.646,345.792 C287.849,345.747 288.819,345.782 289.561,345.904 L290.174,344.616 L291.539,344.118 L294.427,351.657 L293.076,352.149 C292.467,351.445 291.793,350.744 291.059,350.046 C290.325,349.346 289.622,348.797 288.945,348.406 C288.211,347.984 287.444,347.715 286.643,347.596 C285.843,347.477 284.994,347.581 284.095,347.909 C282.966,348.321 282.16,348.976 281.677,349.874 C281.195,350.775 281.124,351.693 281.467,352.636 C281.791,353.525 282.367,354.141 283.193,354.477 C284.02,354.817 285.17,354.963 286.643,354.911 C287.512,354.89 288.396,354.866 289.297,354.836 C290.197,354.805 291.003,354.796 291.718,354.805 C293.446,354.841 294.893,355.23 296.058,355.973 C297.224,356.719 298.081,357.853 298.638,359.382 z M167.961,294.645 C168.301,298.484 168.652,302.476 169.015,306.619 L166.544,307.517 L155.959,292.656 L157.846,310.684 L155.377,311.582 C152.166,306.998 149.699,303.468 147.975,300.987 C146.251,298.51 144.801,296.432 143.627,294.752 C143.267,294.242 142.942,293.897 142.654,293.711 C142.366,293.53 142.019,293.36 141.612,293.211 C141.324,293.104 141.041,293.053 140.759,293.053 C140.478,293.056 140.165,293.09 139.82,293.154 L139.374,291.931 L148.633,288.561 L149.068,289.753 C148.553,290.036 148.176,290.266 147.935,290.442 C147.695,290.618 147.513,290.775 147.388,290.914 C147.272,291.05 147.216,291.172 147.217,291.279 C147.219,291.384 147.234,291.476 147.259,291.546 C147.313,291.693 147.378,291.83 147.457,291.955 C147.534,292.079 147.622,292.224 147.719,292.391 C148.212,293.134 149.169,294.535 150.593,296.595 C152.017,298.654 153.779,301.207 155.878,304.262 L153.94,286.628 L156.533,285.686 L167.187,300.732 C166.885,297.799 166.627,295.409 166.41,293.559 C166.196,291.709 166.004,290.126 165.84,288.816 C165.732,288.012 165.636,287.342 165.553,286.805 C165.466,286.268 165.358,285.819 165.225,285.452 C165.145,285.234 164.998,285.073 164.781,284.976 C164.566,284.876 164.302,284.818 163.992,284.8 C163.732,284.79 163.409,284.822 163.025,284.894 C162.642,284.969 162.311,285.04 162.032,285.103 L161.575,283.85 L168.558,281.308 L169.015,282.562 C168.774,282.686 168.547,282.85 168.334,283.049 C168.122,283.253 167.923,283.483 167.739,283.738 C167.464,284.147 167.304,284.541 167.261,284.923 C167.221,285.305 167.22,285.748 167.257,286.255 C167.386,288.009 167.62,290.805 167.961,294.645 z M358.526,227.816 L360.626,234.898 L339.762,242.492 L339.316,241.266 C339.602,241.139 339.984,240.953 340.462,240.709 C340.941,240.462 341.27,240.259 341.449,240.102 C341.786,239.79 341.974,239.483 342.018,239.177 C342.059,238.871 342.009,238.519 341.866,238.121 L336.155,222.432 C336.016,222.056 335.846,221.765 335.642,221.558 C335.436,221.359 335.079,221.234 334.568,221.197 C334.253,221.17 333.829,221.194 333.3,221.267 C332.77,221.342 332.374,221.409 332.112,221.47 L331.667,220.247 L351.386,213.068 L353.452,218.743 L352.26,219.177 C351.65,218.442 350.818,217.781 349.761,217.184 C348.705,216.593 347.781,216.35 346.995,216.46 C346.655,216.502 346.201,216.618 345.638,216.806 C345.072,216.99 344.606,217.151 344.241,217.284 L341.014,218.461 L344.134,227.036 L346.422,226.201 C346.995,225.992 347.495,225.735 347.915,225.428 C348.335,225.121 348.669,224.703 348.914,224.174 C349.067,223.847 349.155,223.338 349.181,222.64 C349.205,221.946 349.172,221.36 349.083,220.885 L350.273,220.451 L353.652,229.732 L352.46,230.165 C352.239,229.747 351.878,229.255 351.381,228.682 C350.883,228.115 350.474,227.745 350.154,227.578 C349.673,227.326 349.169,227.215 348.648,227.247 C348.126,227.274 347.556,227.405 346.94,227.63 L344.653,228.461 L346.986,234.872 C347.23,235.542 347.471,236.056 347.713,236.41 C347.956,236.764 348.25,236.998 348.596,237.107 C348.931,237.21 349.335,237.21 349.815,237.109 C350.291,237.007 350.922,236.812 351.708,236.527 C352.071,236.394 352.508,236.227 353.018,236.03 C353.524,235.836 353.963,235.638 354.331,235.448 C354.75,235.236 355.131,235.008 355.474,234.762 C355.817,234.523 356.047,234.265 356.163,233.998 C356.478,233.303 356.759,232.318 357.003,231.038 C357.248,229.761 357.376,228.824 357.385,228.23 L358.526,227.816 z" fill="#7B7B7B"/>
      <path d="M397.778,209.718 C374.534,145.856 314.225,106.2 249.989,106.2 C235.932,106.2 221.69,108.132 207.604,112.091 C214.835,107.879 218.284,98.928 215.326,90.803 C212.006,81.676 201.821,76.927 192.695,80.248 L176.103,86.287 C166.976,89.609 162.226,99.794 165.548,108.919 C168.488,116.999 176.812,121.637 185.016,120.29 C110.813,153.863 73.907,239.497 102.221,317.293 C125.468,381.159 185.768,420.812 250.013,420.812 C267.868,420.812 286.038,417.745 303.787,411.285 C385.401,381.577 427.485,291.335 397.778,209.718 z M368.523,318.775 C353.759,350.433 327.552,374.449 294.726,386.395 C280.272,391.658 265.226,394.324 250.012,394.324 C236.798,394.324 223.675,392.312 211.004,388.343 C198.448,384.409 186.589,378.635 175.755,371.181 C153.293,355.728 136.474,333.961 127.108,308.233 C115.161,275.408 116.711,239.896 131.475,208.238 C146.238,176.578 172.446,152.563 205.271,140.616 C219.726,135.355 234.772,132.686 249.988,132.686 C263.196,132.686 276.32,134.7 288.991,138.67 C301.547,142.604 313.407,148.378 324.242,155.833 C346.704,171.287 363.528,193.053 372.89,218.777 C384.837,251.602 383.287,287.116 368.523,318.775 z M285.709,240.394 C284.664,238.9 283.548,237.472 282.331,236.149 L313.338,174.068 L313.88,172.984 L265.993,225.265 C261.491,223.62 256.701,222.722 251.814,222.723 C250.611,222.723 249.404,222.779 248.193,222.887 L223.509,186.34 L228.091,230.207 C223.812,233.197 220.206,236.931 217.39,241.16 L192.069,236.257 L212.102,252.502 C210.671,257.378 210.128,262.54 210.589,267.743 L174.041,292.427 L217.928,287.844 C218.815,289.112 219.762,290.326 220.776,291.473 L189.757,355.253 L192.198,352.545 L236.874,302.699 C241.596,304.528 246.659,305.514 251.821,305.514 C253.024,305.514 254.23,305.456 255.441,305.35 L280.128,341.897 L275.544,298.029 C279.826,295.038 283.43,291.305 286.247,287.077 L311.569,291.978 L291.534,275.736 C292.964,270.86 293.507,265.698 293.046,260.497 L329.596,235.809 L285.709,240.394 z M224.966,282.861 C223.353,280.56 222.006,278.047 221.018,275.328 C218.024,267.102 218.413,258.201 222.113,250.267 C225.814,242.331 232.382,236.312 240.609,233.317 C244.232,231.999 248.002,231.33 251.817,231.33 L251.819,231.33 C254.47,231.33 257.067,231.661 259.57,232.276 L238.238,255.568 L224.966,282.861 z M243.283,258.319 C244.926,256.405 247.246,255.063 249.951,254.724 C252.569,254.4 255.072,255.076 257.098,256.438 C259.534,258.072 261.28,260.71 261.67,263.852 C261.921,265.867 261.553,267.802 260.762,269.523 C259.207,272.429 256.068,275.137 252.546,275.576 C249.866,275.909 247.308,275.191 245.257,273.767 C242.892,272.119 241.206,269.527 240.822,266.446 C240.463,263.555 241.612,260.448 243.283,258.319 z M281.523,277.971 C277.824,285.906 271.255,291.923 263.029,294.917 C259.405,296.236 255.634,296.907 251.821,296.907 C248.842,296.907 245.933,296.476 243.144,295.703 L264.475,271.903 L278.114,244.596 C279.978,247.099 281.516,249.882 282.617,252.909 C285.613,261.135 285.224,270.035 281.523,277.971 z M200.92,165.221 L200.463,163.965 L208.835,160.92 L226.47,171.535 L223.409,163.122 C222.921,161.784 222.471,160.823 222.058,160.234 C221.643,159.646 221.183,159.264 220.684,159.091 C220.292,158.964 219.768,158.921 219.11,158.964 C218.452,159.01 217.927,159.067 217.538,159.136 L217.094,157.914 L226.638,154.439 L227.083,155.661 C226.803,155.8 226.407,156.009 225.893,156.292 C225.379,156.574 224.962,156.956 224.642,157.439 C224.358,157.86 224.261,158.446 224.347,159.188 C224.434,159.931 224.719,160.966 225.203,162.294 L230.987,178.189 L228.198,179.206 L208.082,167.052 L211.881,177.491 C212.353,178.786 212.798,179.742 213.217,180.351 C213.634,180.964 214.094,181.356 214.594,181.528 C214.96,181.655 215.485,181.695 216.165,181.65 C216.847,181.604 217.382,181.543 217.77,181.474 L218.214,182.696 L208.654,186.175 L208.208,184.953 C208.606,184.774 209.044,184.528 209.528,184.215 C210.012,183.902 210.387,183.557 210.65,183.179 C210.947,182.726 211.062,182.165 210.99,181.501 C210.92,180.834 210.621,179.781 210.096,178.338 L206.262,167.805 C206.073,167.283 205.812,166.816 205.481,166.41 C205.149,166.006 204.75,165.699 204.283,165.487 C203.789,165.266 203.267,165.138 202.717,165.109 C202.165,165.077 201.566,165.117 200.92,165.221 z M298.638,359.382 C298.988,360.343 299.103,361.356 298.983,362.42 C298.86,363.485 298.526,364.453 297.982,365.326 C297.384,366.291 296.602,367.149 295.634,367.904 C294.667,368.659 293.45,369.303 291.989,369.837 C290.629,370.331 289.302,370.623 288.002,370.709 C286.703,370.798 285.563,370.761 284.58,370.598 L283.897,372.087 L282.565,372.573 L279.434,364.609 L280.782,364.118 C281.362,364.77 282.044,365.437 282.823,366.113 C283.603,366.789 284.422,367.353 285.283,367.796 C286.174,368.27 287.097,368.582 288.047,368.734 C288.996,368.886 289.996,368.77 291.052,368.385 C292.474,367.869 293.435,367.123 293.941,366.153 C294.445,365.182 294.506,364.166 294.121,363.111 C293.805,362.243 293.217,361.63 292.359,361.273 C291.502,360.915 290.321,360.766 288.816,360.827 C287.836,360.867 286.933,360.896 286.108,360.924 C285.283,360.949 284.501,360.954 283.761,360.939 C282.049,360.888 280.63,360.439 279.5,359.592 C278.37,358.749 277.557,357.638 277.058,356.268 C276.742,355.401 276.626,354.497 276.71,353.559 C276.794,352.622 277.082,351.703 277.571,350.803 C278.043,349.957 278.748,349.149 279.687,348.379 C280.627,347.612 281.728,346.997 282.992,346.536 C284.227,346.086 285.444,345.841 286.646,345.792 C287.849,345.747 288.819,345.782 289.561,345.904 L290.174,344.616 L291.539,344.118 L294.427,351.657 L293.076,352.149 C292.467,351.445 291.793,350.744 291.059,350.046 C290.325,349.346 289.622,348.797 288.945,348.406 C288.211,347.984 287.444,347.715 286.643,347.596 C285.843,347.477 284.994,347.581 284.095,347.909 C282.966,348.321 282.16,348.976 281.677,349.874 C281.195,350.775 281.124,351.693 281.467,352.636 C281.791,353.525 282.367,354.141 283.193,354.477 C284.02,354.817 285.17,354.963 286.643,354.911 C287.512,354.89 288.396,354.866 289.297,354.836 C290.197,354.805 291.003,354.796 291.718,354.805 C293.446,354.841 294.893,355.23 296.058,355.973 C297.224,356.719 298.081,357.853 298.638,359.382 z M167.961,294.645 C168.301,298.484 168.652,302.476 169.015,306.619 L166.544,307.517 L155.959,292.656 L157.846,310.684 L155.377,311.582 C152.166,306.998 149.699,303.468 147.975,300.987 C146.251,298.51 144.801,296.432 143.627,294.752 C143.267,294.242 142.942,293.897 142.654,293.711 C142.366,293.53 142.019,293.36 141.612,293.211 C141.324,293.104 141.041,293.053 140.759,293.053 C140.478,293.056 140.165,293.09 139.82,293.154 L139.374,291.931 L148.633,288.561 L149.068,289.753 C148.553,290.036 148.176,290.266 147.935,290.442 C147.695,290.618 147.513,290.775 147.388,290.914 C147.272,291.05 147.216,291.172 147.217,291.279 C147.219,291.384 147.234,291.476 147.259,291.546 C147.313,291.693 147.378,291.83 147.457,291.955 C147.534,292.079 147.622,292.224 147.719,292.391 C148.212,293.134 149.169,294.535 150.593,296.595 C152.017,298.654 153.779,301.207 155.878,304.262 L153.94,286.628 L156.533,285.686 L167.187,300.732 C166.885,297.799 166.627,295.409 166.41,293.559 C166.196,291.709 166.004,290.126 165.84,288.816 C165.732,288.012 165.636,287.342 165.553,286.805 C165.466,286.268 165.358,285.819 165.225,285.452 C165.145,285.234 164.998,285.073 164.781,284.976 C164.566,284.876 164.302,284.818 163.992,284.8 C163.732,284.79 163.409,284.822 163.025,284.894 C162.642,284.969 162.311,285.04 162.032,285.103 L161.575,283.85 L168.558,281.308 L169.015,282.562 C168.774,282.686 168.547,282.85 168.334,283.049 C168.122,283.253 167.923,283.483 167.739,283.738 C167.464,284.147 167.304,284.541 167.261,284.923 C167.221,285.305 167.22,285.748 167.257,286.255 C167.386,288.009 167.62,290.805 167.961,294.645 z M358.526,227.816 L360.626,234.898 L339.762,242.492 L339.316,241.266 C339.602,241.139 339.984,240.953 340.462,240.709 C340.941,240.462 341.27,240.259 341.449,240.102 C341.786,239.79 341.974,239.483 342.018,239.177 C342.059,238.871 342.009,238.519 341.866,238.121 L336.155,222.432 C336.016,222.056 335.846,221.765 335.642,221.558 C335.436,221.359 335.079,221.234 334.568,221.197 C334.253,221.17 333.829,221.194 333.3,221.267 C332.77,221.342 332.374,221.409 332.112,221.47 L331.667,220.247 L351.386,213.068 L353.452,218.743 L352.26,219.177 C351.65,218.442 350.818,217.781 349.761,217.184 C348.705,216.593 347.781,216.35 346.995,216.46 C346.655,216.502 346.201,216.618 345.638,216.806 C345.072,216.99 344.606,217.151 344.241,217.284 L341.014,218.461 L344.134,227.036 L346.422,226.201 C346.995,225.992 347.495,225.735 347.915,225.428 C348.335,225.121 348.669,224.703 348.914,224.174 C349.067,223.847 349.155,223.338 349.181,222.64 C349.205,221.946 349.172,221.36 349.083,220.885 L350.273,220.451 L353.652,229.732 L352.46,230.165 C352.239,229.747 351.878,229.255 351.381,228.682 C350.883,228.115 350.474,227.745 350.154,227.578 C349.673,227.326 349.169,227.215 348.648,227.247 C348.126,227.274 347.556,227.405 346.94,227.63 L344.653,228.461 L346.986,234.872 C347.23,235.542 347.471,236.056 347.713,236.41 C347.956,236.764 348.25,236.998 348.596,237.107 C348.931,237.21 349.335,237.21 349.815,237.109 C350.291,237.007 350.922,236.812 351.708,236.527 C352.071,236.394 352.508,236.227 353.018,236.03 C353.524,235.836 353.963,235.638 354.331,235.448 C354.75,235.236 355.131,235.008 355.474,234.762 C355.817,234.523 356.047,234.265 356.163,233.998 C356.478,233.303 356.759,232.318 357.003,231.038 C357.248,229.761 357.376,228.824 357.385,228.23 L358.526,227.816 z" fill-opacity="0" stroke="#000000" stroke-width="0.5"/>
    </g>
  </g>
</svg>
