<?xml version="1.0" encoding="UTF-8"?>
<!DOCTYPE svg PUBLIC "-//W3C//DTD SVG 1.1//EN" "http://www.w3.org/Graphics/SVG/1.1/DTD/svg11.dtd">
<svg version="1.1" xmlns="http://www.w3.org/2000/svg" xmlns:xlink="http://www.w3.org/1999/xlink" x="0" y="0" width="500" height="500" viewBox="0, 0, 500, 500">

  <g id="Layer_24">
    <g>
      <g>
        <path d="M112.653,86.755 L387.348,86.755 C389.618,86.755 391.458,88.595 391.458,90.865 L391.458,409.135 C391.458,411.404 389.618,413.245 387.348,413.245 L112.653,413.245 C110.383,413.245 108.542,411.404 108.542,409.135 L108.542,90.865 C108.542,88.595 110.383,86.755 112.653,86.755 z" fill="#7B7B7B"/>
        <g>
          <path d="M112.653,86.755 L387.348,86.755 C389.618,86.755 391.458,88.595 391.458,90.865 L391.458,409.135 C391.458,411.404 389.618,413.245 387.348,413.245 L112.653,413.245 C110.383,413.245 108.542,411.404 108.542,409.135 L108.542,90.865 C108.542,88.595 110.383,86.755 112.653,86.755 z" fill="#7B7B7B"/>
          <path d="M112.653,86.755 L387.348,86.755 C389.618,86.755 391.458,88.595 391.458,90.865 L391.458,409.135 C391.458,411.404 389.618,413.245 387.348,413.245 L112.653,413.245 C110.383,413.245 108.542,411.404 108.542,409.135 L108.542,90.865 C108.542,88.595 110.383,86.755 112.653,86.755 z" fill-opacity="0" stroke="#888A85" stroke-width="1"/>
        </g>
      </g>
      <g>
        <path d="M115.784,94.03 L384.398,94.03 L384.398,406.15 L115.784,406.15 z" fill="#FFFFFF"/>
        <path d="M115.784,94.03 L384.398,94.03 L384.398,406.15 L115.784,406.15 z" fill-opacity="0" stroke="#FFFFFF" stroke-width="1"/>
      </g>
      <path d="M141.178,149.295 L337.058,149.295 L337.058,163.804 L141.178,163.804 z" fill="#7B7B7B"/>
      <path d="M141.178,191.973 L322.548,191.973 L322.548,206.482 L141.178,206.482 z" fill="#7B7B7B"/>
      <path d="M141.178,235.501 L307.832,235.501 L307.832,250.011 L141.178,250.011 z" fill="#7B7B7B"/>
      <path d="M141.178,279.031 L337.058,279.031 L337.058,293.54 L141.178,293.54 z" fill="#7B7B7B"/>
      <path d="M141.178,322.559 L264.51,322.559 L264.51,337.069 L141.178,337.069 z" fill="#7B7B7B"/>
    </g>
  </g>
</svg>
