<?xml version="1.0" encoding="UTF-8"?>
<!DOCTYPE svg PUBLIC "-//W3C//DTD SVG 1.1//EN" "http://www.w3.org/Graphics/SVG/1.1/DTD/svg11.dtd">
<svg version="1.1" xmlns="http://www.w3.org/2000/svg" xmlns:xlink="http://www.w3.org/1999/xlink" x="0" y="0" width="500" height="500" viewBox="0, 0, 500, 500">

  <g id="Calque_2">
    <g>
      <path d="M129.057,149.326 C129.495,144.693 133.904,140.968 138.515,141.102 C144.922,141.013 151.317,141.091 157.724,141.069 C161.819,140.766 165.69,143.638 167.194,147.341 C168.45,151.727 167.889,156.35 167.99,160.861 C154.997,160.872 141.994,160.804 129.001,160.895 C128.989,157.034 128.788,153.175 129.057,149.326 z" fill="#808080"/>
      <path d="M129.057,149.326 C129.495,144.693 133.904,140.968 138.515,141.102 C144.922,141.013 151.317,141.091 157.724,141.069 C161.819,140.766 165.69,143.638 167.194,147.341 C168.45,151.727 167.889,156.35 167.99,160.861 C154.997,160.872 141.994,160.804 129.001,160.895 C128.989,157.034 128.788,153.175 129.057,149.326 z" fill-opacity="0" stroke="#000000" stroke-width="1"/>
    </g>
    <path d="M194.19,158.131 C198.442,152.555 205.342,148.874 212.411,149.009 C231.081,149.043 249.762,149.043 268.432,149.009 C275.511,148.909 282.412,152.644 286.664,158.244 C290.659,163.191 294.955,167.892 298.669,173.076 C320.032,173.155 341.394,172.986 362.757,173.143 C374.224,173.749 384.558,182.299 387.991,193.159 C389.707,198.175 389.326,203.549 389.359,208.766 C389.348,244.288 389.348,279.822 389.359,315.344 C389.315,320.157 389.696,325.071 388.327,329.762 C385.702,339.377 377.746,347.331 368.131,349.968 C363.868,351.259 359.369,350.956 354.97,350.978 C282.737,350.945 210.504,351.012 138.27,350.945 C123.785,350.732 110.826,337.806 110.658,323.31 C110.613,282.481 110.613,241.641 110.658,200.811 C110.77,186.26 123.785,173.199 138.348,173.099 C152.934,173.053 167.52,173.121 182.106,173.076 C185.831,167.859 190.196,163.135 194.19,158.131 M221.903,191.678 C197.186,196.469 176.07,215.846 169.135,240.036 C163.2,259.682 166.712,281.92 178.494,298.738 C187.727,312.36 202.022,322.424 217.943,326.598 C233.067,330.637 249.549,329.29 263.82,322.85 C279.843,315.703 292.958,302.239 299.589,285.981 C305.423,271.946 306.557,255.98 302.383,241.338 C297.458,223.083 284.633,207.184 267.915,198.388 C253.981,190.893 237.397,188.525 221.903,191.678 M322.938,198.31 C316.296,201.272 317.092,209.495 317.294,215.51 C317.125,220.311 320.66,225.316 325.676,225.585 C333.911,226.068 342.169,225.607 350.415,225.798 C354.42,225.776 359.212,226.247 362.151,222.915 C366.112,218.853 364.552,212.704 364.799,207.622 C365.169,202.663 361.276,197.704 356.171,197.614 C348.654,197.176 341.103,197.591 333.585,197.423 C330.028,197.502 326.326,197.075 322.938,198.31 z" fill="#EAEAEA"/>
    <path d="M194.19,158.131 C198.442,152.555 205.342,148.874 212.411,149.009 C231.081,149.043 249.762,149.043 268.432,149.009 C275.511,148.909 282.412,152.644 286.664,158.244 C290.659,163.191 294.955,167.892 298.669,173.076 C320.032,173.155 341.394,172.986 362.757,173.143 C374.224,173.749 384.558,182.299 387.991,193.159 C389.707,198.175 389.326,203.549 389.359,208.766 C389.348,244.288 389.348,279.822 389.359,315.344 C389.315,320.157 389.696,325.071 388.327,329.762 C385.702,339.377 377.746,347.331 368.131,349.968 C363.868,351.259 359.369,350.956 354.97,350.978 C282.737,350.945 210.504,351.012 138.27,350.945 C123.785,350.732 110.826,337.806 110.658,323.31 C110.613,282.481 110.613,241.641 110.658,200.811 C110.77,186.26 123.785,173.199 138.348,173.099 C152.934,173.053 167.52,173.121 182.106,173.076 C185.831,167.859 190.196,163.135 194.19,158.131 M221.903,191.678 C197.186,196.469 176.07,215.846 169.135,240.036 C163.2,259.682 166.712,281.92 178.494,298.738 C187.727,312.36 202.022,322.424 217.943,326.598 C233.067,330.637 249.549,329.29 263.82,322.85 C279.843,315.703 292.958,302.239 299.589,285.981 C305.423,271.946 306.557,255.98 302.383,241.338 C297.458,223.083 284.633,207.184 267.915,198.388 C253.981,190.893 237.397,188.525 221.903,191.678 M322.938,198.31 C316.296,201.272 317.092,209.495 317.294,215.51 C317.125,220.311 320.66,225.316 325.676,225.585 C333.911,226.068 342.169,225.607 350.415,225.798 C354.42,225.776 359.212,226.247 362.151,222.915 C366.112,218.853 364.552,212.704 364.799,207.622 C365.169,202.663 361.276,197.704 356.171,197.614 C348.654,197.176 341.103,197.591 333.585,197.423 C330.028,197.502 326.326,197.075 322.938,198.31 z" fill-opacity="0" stroke="#7B7B7B" stroke-width="15"/>
    <g>
      <path d="M223.472,205.326 C237.486,202.329 252.587,205.213 264.626,212.966 C279.796,222.66 289.995,240.05 290.028,258.171 C290.567,270.378 286.685,282.652 279.414,292.447 C269.305,306.371 252.363,315.257 235.074,315.022 C222.036,315.336 209.043,310.523 199.091,302.152 C184.977,290.596 177.392,271.68 179.591,253.571 C181.712,230.211 200.494,209.768 223.472,205.326 M214.934,228.842 C206.923,229.694 199.966,236.573 199.473,244.662 C198.239,254.177 206.362,263.59 215.944,263.736 C224.583,264.51 232.796,257.767 234.165,249.296 C236.521,238.323 226.008,227.204 214.934,228.842 z" fill="#B4B4B4"/>
      <path d="M223.472,205.326 C237.486,202.329 252.587,205.213 264.626,212.966 C279.796,222.66 289.995,240.05 290.028,258.171 C290.567,270.378 286.685,282.652 279.414,292.447 C269.305,306.371 252.363,315.257 235.074,315.022 C222.036,315.336 209.043,310.523 199.091,302.152 C184.977,290.596 177.392,271.68 179.591,253.571 C181.712,230.211 200.494,209.768 223.472,205.326 M214.934,228.842 C206.923,229.694 199.966,236.573 199.473,244.662 C198.239,254.177 206.362,263.59 215.944,263.736 C224.583,264.51 232.796,257.767 234.165,249.296 C236.521,238.323 226.008,227.204 214.934,228.842 z" fill-opacity="0" stroke="#000000" stroke-width="1"/>
    </g>
  </g>
</svg>
