<?xml version="1.0" encoding="UTF-8"?>
<!DOCTYPE svg PUBLIC "-//W3C//DTD SVG 1.1//EN" "http://www.w3.org/Graphics/SVG/1.1/DTD/svg11.dtd">
<svg version="1.1" xmlns="http://www.w3.org/2000/svg" xmlns:xlink="http://www.w3.org/1999/xlink" x="0px" y="0px" width="500" height="500" viewBox="0, 0, 500, 500">
  <g id="arc3pts">
    <g>
      <path d="M104.052,152.021 C137.054,114.025 185.721,90 240,90 C339.411,90 420,170.589 420,270 C420,304.794 410.128,337.282 393.032,364.816" fill-opacity="0" stroke="#FFFFFF" stroke-width="30"/>
      <path d="M360,200 C326.863,200 300,173.137 300,140 C300,106.863 326.863,80 360,80 C393.137,80 420,106.863 420,140 C420,173.137 393.137,200 360,200 z" fill="#CFCFCF"/>
      <path d="M110.448,209.998 C77.312,210.246 50.249,183.584 50.002,150.448 C49.754,117.312 76.416,90.249 109.552,90.002 C142.688,89.754 169.751,116.416 169.998,149.552 C170.246,182.688 143.584,209.751 110.448,209.998 z" fill="#CFCFCF"/>
      <path d="M390.448,419.998 C357.312,420.246 330.249,393.584 330.002,360.448 C329.754,327.312 356.416,300.249 389.552,300.002 C422.688,299.754 449.751,326.416 449.998,359.552 C450.246,392.688 423.584,419.751 390.448,419.998 z" fill="#CFCFCF"/>
      <g>
        <path d="M100,150 L100,150 L100,150 z" fill="#FFFFFF"/>
        <path d="M100,150 L100,150 L100,150 z" fill-opacity="0" stroke="#000000" stroke-width="1"/>
      </g>
    </g>
  </g>
  <defs/>
</svg>
