<?xml version="1.0" encoding="UTF-8"?>
<!DOCTYPE svg PUBLIC "-//W3C//DTD SVG 1.1//EN" "http://www.w3.org/Graphics/SVG/1.1/DTD/svg11.dtd">
<svg version="1.1" xmlns="http://www.w3.org/2000/svg" xmlns:xlink="http://www.w3.org/1999/xlink" x="0px" y="0px" width="500" height="500" viewBox="0, 0, 500, 500">
  <g id="area">
    <g>
      <path d="M105,175 L135,375 L345,375 L395,125 L105,175 z" fill-opacity="0" stroke="#FFFFFF" stroke-width="30"/>
      <path d="M395,185 C361.863,185 335,158.137 335,125 C335,91.863 361.863,65 395,65 C428.137,65 455,91.863 455,125 C455,158.137 428.137,185 395,185 z" fill="#CFCFCF"/>
      <path d="M105,235 C71.863,235 45,208.137 45,175 C45,141.863 71.863,115 105,115 C138.137,115 165,141.863 165,175 C165,208.137 138.137,235 105,235 z" fill="#CFCFCF"/>
      <path d="M135,435 C101.863,435 75,408.137 75,375 C75,341.863 101.863,315 135,315 C168.137,315 195,341.863 195,375 C195,408.137 168.137,435 135,435 z" fill="#CFCFCF"/>
      <path d="M345,435 C311.863,435 285,408.137 285,375 C285,341.863 311.863,315 345,315 C378.137,315 405,341.863 405,375 C405,408.137 378.137,435 345,435 z" fill="#CFCFCF"/>
    </g>
  </g>
  <defs/>
</svg>
