<?xml version="1.0" encoding="UTF-8" standalone="no"?>
<svg
   xmlns:dc="http://purl.org/dc/elements/1.1/"
   xmlns:cc="http://creativecommons.org/ns#"
   xmlns:rdf="http://www.w3.org/1999/02/22-rdf-syntax-ns#"
   xmlns:svg="http://www.w3.org/2000/svg"
   xmlns="http://www.w3.org/2000/svg"
   xmlns:sodipodi="http://sodipodi.sourceforge.net/DTD/sodipodi-0.dtd"
   xmlns:inkscape="http://www.inkscape.org/namespaces/inkscape"
   height="500"
   width="500"
   id="svg2"
   version="1.1"
   inkscape:version="0.91 r"
   sodipodi:docname="blockly.svg">
  <metadata
     id="metadata10">
    <rdf:RDF>
      <cc:Work
         rdf:about="">
        <dc:format>image/svg+xml</dc:format>
        <dc:type
           rdf:resource="http://purl.org/dc/dcmitype/StillImage" />
        <dc:title />
      </cc:Work>
    </rdf:RDF>
  </metadata>
  <defs
     id="defs8" />
  <sodipodi:namedview
     pagecolor="#ffffff"
     bordercolor="#666666"
     borderopacity="1"
     objecttolerance="10"
     gridtolerance="10"
     guidetolerance="10"
     inkscape:pageopacity="0"
     inkscape:pageshadow="2"
     inkscape:window-width="1695"
     inkscape:window-height="1119"
     id="namedview6"
     showgrid="false"
     inkscape:zoom="0.236"
     inkscape:cx="-559.01959"
     inkscape:cy="500"
     inkscape:window-x="51"
     inkscape:window-y="316"
     inkscape:window-maximized="0"
     inkscape:current-layer="svg2" />
  <path
     d="m 414.34391,316.68342 q 0,17.31204 -8.79003,28.85341 -8.79002,11.54136 -24.39479,11.54136 -8.09868,0 -15.30849,-3.74026 -7.2098,-3.74026 -11.65419,-8.1217 -4.44439,-4.38145 -11.16038,-8.1217 -6.71597,-3.74025 -14.02453,-3.74025 -21.72816,0 -21.72816,26.50238 0,8.33543 3.16046,24.57883 3.16045,16.24339 2.96292,24.57882 l 0,1.06865 q -4.34563,0 -6.51844,0.21373 -6.71598,0.64119 -19.25906,2.45788 -12.54307,1.81669 -22.81456,2.88534 -10.2715,1.06865 -19.35782,1.06865 -12.04925,0 -20.34546,-5.66382 -8.29621,-5.66381 -8.29621,-17.84637 0,-7.90796 3.45675,-15.17475 3.45676,-7.26678 7.5061,-12.07569 4.04933,-4.8089 7.50609,-12.61 3.45675,-7.8011 3.45675,-16.56399 0,-16.88458 -10.66655,-26.39552 -10.66655,-9.51095 -26.66638,-9.51095 -16.59242,0 -28.24661,9.72467 -11.65419,9.72467 -11.65419,27.25044 0,9.19034 2.96292,17.7395 2.96294,8.54916 6.61722,13.78552 3.65428,5.23635 6.61721,11.32763 2.96293,6.09127 2.96293,10.79332 0,9.61779 -9.08632,19.02187 -7.30856,7.48051 -23.11086,7.48051 -18.76523,0 -48.39454,-5.12949 -1.77776,-0.42746 -5.432037,-0.85492 -3.654285,-0.42746 -5.432041,-0.85491 l -2.567873,-0.42746 q -0.19753,0 -0.592588,-0.21373 -0.395059,0 -0.395059,-0.21373 l 0,-218.85842 q 0.395059,0.21373 3.456755,0.74805 3.061697,0.53432 6.715974,1.06864 3.654285,0.53433 4.246869,0.74806 29.62931,5.12949 48.39454,5.12949 15.8023,0 23.11086,-7.48051 9.08632,-9.40408 9.08632,-19.02188 0,-4.70203 -2.96293,-10.79331 -2.96293,-6.09128 -6.61721,-11.32763 -3.65428,-5.23636 -6.61722,-13.78552 -2.96292,-8.54915 -2.96292,-17.73949 0,-17.52577 11.65419,-27.250442 11.65419,-9.724661 28.44414,-9.724661 15.8023,0 26.46885,9.510931 10.66655,9.510942 10.66655,26.395522 0,8.76289 -3.45675,16.56399 -3.45676,7.8011 -7.50609,12.61 -4.04934,4.80891 -7.5061,12.07569 -3.45675,7.26679 -3.45675,15.17476 0,12.18255 8.29621,17.84636 8.29621,5.66382 20.34546,5.66382 12.64183,0 35.55517,-3.20594 22.91333,-3.20593 32.19719,-3.63339 l 0,0.42746 q -0.19753,0.42746 -0.69135,3.74026 -0.49383,3.31279 -0.98765,7.26678 -0.49382,3.95399 -0.69135,4.59517 -4.74069,32.05934 -4.74069,52.36359 0,17.09831 6.91351,25.00628 8.69126,9.83153 17.58006,9.83153 4.34563,0 9.9752,-3.20593 5.62957,-3.20594 10.46902,-7.15992 4.83945,-3.95398 12.7406,-7.15992 7.90115,-3.20593 16.39489,-3.20593 16.19736,0 25.18491,12.61001 8.98756,12.61 8.98756,30.56323 z"
     id="path4"
     inkscape:connector-curvature="0"
     style="fill:none;fill-opacity:1;stroke:#e5e5e5;stroke-width:25.35412979;stroke-miterlimit:4;stroke-dasharray:none;stroke-opacity:1" />
</svg>
