<?xml version="1.0" encoding="UTF-8"?>
<!DOCTYPE svg PUBLIC "-//W3C//DTD SVG 1.1//EN" "http://www.w3.org/Graphics/SVG/1.1/DTD/svg11.dtd">
<svg version="1.1" xmlns="http://www.w3.org/2000/svg" xmlns:xlink="http://www.w3.org/1999/xlink" x="0" y="0" width="500" height="500" viewBox="0, 0, 500, 500">
  <g id="Calque_2">
    <path d="M301.5,134.93 L301.5,119.077 C301.5,106.041 290.959,95.5 277.923,95.5 L221.997,95.5 C209.041,95.5 198.5,106.041 198.5,119.077 L198.5,134.93 L134.125,134.93 L134.125,147 L151.104,147 L170.095,380.923 C170.095,393.959 180.636,404.5 193.672,404.5 L307.133,404.5 C320.169,404.5 330.71,393.959 330.71,380.923 L349.459,147 L365.875,147 L365.875,134.93 L301.5,134.93 z M210.57,119.077 C210.57,112.559 215.559,107.57 222.077,107.57 L278.003,107.57 C284.521,107.57 289.51,112.559 289.51,119.077 L289.51,134.93 L210.651,134.93 L210.651,119.077 L210.57,119.077 z M195.623,366.68 L187.013,172.75 L210.168,172.75 L218.939,366.68 L195.623,366.68 z M260.358,366.68 L238.779,366.68 L238.779,172.75 L260.358,172.75 L260.358,366.68 z M305.24,366.68 L281.141,366.68 L289.832,172.75 L313.85,172.75 L305.24,366.68 z" fill="#E5E5E5"/>
  </g>
</svg>
