<?xml version="1.0" encoding="UTF-8"?>
<!DOCTYPE svg PUBLIC "-//W3C//DTD SVG 1.1//EN" "http://www.w3.org/Graphics/SVG/1.1/DTD/svg11.dtd">
<svg version="1.1" xmlns="http://www.w3.org/2000/svg" xmlns:xlink="http://www.w3.org/1999/xlink" x="0px" y="0px" width="500" height="500" viewBox="0, 0, 500, 500">
  <g id="callproperty">
    <g>
      <path d="M241.072,79.674 C237.478,79.92 233.985,80.477 230.455,80.881 L230.214,80.881 L221.768,126.968 C208.003,130.103 195.053,135.423 183.402,142.652 L145.519,115.386 C135.278,123.337 125.959,132.61 117.77,142.652 L144.071,181.018 C136.086,193.222 130.08,207.157 126.698,221.797 C126.698,221.867 126.698,222.027 126.698,222.039 L80.852,229.277 C80.014,236.124 79.646,243.199 79.646,250.27 C79.646,256.056 79.805,261.764 80.369,267.402 L126.216,275.606 C129.476,291.527 135.67,306.396 144.313,319.522 L117.046,356.923 C124.855,366.617 133.87,375.444 143.589,383.224 L182.196,356.681 C195.689,365.289 210.751,371.324 227.077,374.296 L234.316,419.901 C239.46,420.369 244.735,420.383 250,420.383 C257.433,420.383 264.534,420.102 271.717,419.177 L280.403,372.607 C295.904,368.749 310.466,362.057 323.112,353.062 L360.272,380.087 C369.909,371.888 378.721,362.465 386.332,352.338 L359.307,313.248 C366.626,300.608 371.697,286.662 374.267,271.745 L419.872,264.507 C420.272,259.748 420.354,255.132 420.354,250.27 C420.354,241.821 419.372,233.537 418.183,225.417 L371.854,216.971 C368.224,203.565 362.267,191.057 354.722,179.812 L381.989,142.411 C373.537,132.075 363.896,122.527 353.274,114.421 L313.943,141.446 C302.639,134.76 290.474,129.631 277.266,126.727 L270.027,80.881 C263.439,80.106 256.796,79.674 250,79.674 C248.163,79.674 246.273,79.617 244.45,79.674 C243.562,79.703 242.682,79.623 241.796,79.674 C241.556,79.688 241.312,79.658 241.072,79.674 z M247.346,196.944 C248.227,196.899 249.107,196.944 250,196.944 C278.563,196.944 301.878,220.26 301.878,248.822 C301.879,277.385 278.563,300.46 250,300.46 C221.437,300.46 198.363,277.385 198.363,248.822 C198.363,221.152 220.018,198.331 247.346,196.944 z" fill="#E5E5E5"/>
      <path d="M241.072,79.674 C237.478,79.92 233.985,80.477 230.455,80.881 L230.214,80.881 L221.768,126.968 C208.003,130.103 195.053,135.423 183.402,142.652 L145.519,115.386 C135.278,123.337 125.959,132.61 117.77,142.652 L144.071,181.018 C136.086,193.222 130.08,207.157 126.698,221.797 C126.698,221.867 126.698,222.027 126.698,222.039 L80.852,229.277 C80.014,236.124 79.646,243.199 79.646,250.27 C79.646,256.056 79.805,261.764 80.369,267.402 L126.216,275.606 C129.476,291.527 135.67,306.396 144.313,319.522 L117.046,356.923 C124.855,366.617 133.87,375.444 143.589,383.224 L182.196,356.681 C195.689,365.289 210.751,371.324 227.077,374.296 L234.316,419.901 C239.46,420.369 244.735,420.383 250,420.383 C257.433,420.383 264.534,420.102 271.717,419.177 L280.403,372.607 C295.904,368.749 310.466,362.057 323.112,353.062 L360.272,380.087 C369.909,371.888 378.721,362.465 386.332,352.338 L359.307,313.248 C366.626,300.608 371.697,286.662 374.267,271.745 L419.872,264.507 C420.272,259.748 420.354,255.132 420.354,250.27 C420.354,241.821 419.372,233.537 418.183,225.417 L371.854,216.971 C368.224,203.565 362.267,191.057 354.722,179.812 L381.989,142.411 C373.537,132.075 363.896,122.527 353.274,114.421 L313.943,141.446 C302.639,134.76 290.474,129.631 277.266,126.727 L270.027,80.881 C263.439,80.106 256.796,79.674 250,79.674 C248.163,79.674 246.273,79.617 244.45,79.674 C243.562,79.703 242.682,79.623 241.796,79.674 C241.556,79.688 241.312,79.658 241.072,79.674 z M247.346,196.944 C248.227,196.899 249.107,196.944 250,196.944 C278.563,196.944 301.878,220.26 301.878,248.822 C301.879,277.385 278.563,300.46 250,300.46 C221.437,300.46 198.363,277.385 198.363,248.822 C198.363,221.152 220.018,198.331 247.346,196.944 z" fill-opacity="0" stroke="#808080" stroke-width="1"/>
    </g>
  </g>
  <defs/>
</svg>
