<?xml version="1.0" encoding="UTF-8"?>
<!DOCTYPE svg PUBLIC "-//W3C//DTD SVG 1.1//EN" "http://www.w3.org/Graphics/SVG/1.1/DTD/svg11.dtd">
<svg version="1.1" xmlns="http://www.w3.org/2000/svg" xmlns:xlink="http://www.w3.org/1999/xlink" x="0px" y="0px" width="500" height="500" viewBox="0, 0, 500, 500">
  <g id="callcalc">
    <path d="M166.398,95 L333.602,95 C349.898,95 363.108,107.617 363.108,123.182 L363.108,376.818 C363.108,392.383 349.898,405 333.602,405 L166.398,405 C150.102,405 136.892,392.383 136.892,376.818 L136.892,123.182 C136.892,107.617 150.102,95 166.398,95 z M175,120 C163.954,120 155,128.954 155,140 L155,140 C155,151.046 163.954,160 175,160 L325,160 C336.046,160 345,151.046 345,140 L345,140 C345,128.954 336.046,120 325,120 L175,120 z M160,230 L200,230 L200,190 L160,190 z M230,230 L270,230 L270,190 L230,190 z M300,230 L340,230 L340,190 L300,190 z M160,300 L200,300 L200,260 L160,260 z M230,300 L270,300 L270,260 L230,260 z M300,300 L340,300 L340,260 L300,260 z M160,370 L200,370 L200,330 L160,330 z M230,370 L270,370 L270,330 L230,330 z M300,370 L340,370 L340,330 L300,330 z" fill="#E5E5E5"/>
  </g>
  <defs/>
</svg>
