<?xml version="1.0" encoding="UTF-8"?>
<!DOCTYPE svg PUBLIC "-//W3C//DTD SVG 1.1//EN" "http://www.w3.org/Graphics/SVG/1.1/DTD/svg11.dtd">
<svg version="1.1" xmlns="http://www.w3.org/2000/svg" xmlns:xlink="http://www.w3.org/1999/xlink" x="0" y="0" width="500" height="500" viewBox="0, 0, 500, 500">
  <g id="Calque_2">
    <g>
      <path d="M157,130 L357.5,288.5" fill-opacity="0" stroke="#E5E5E5" stroke-width="28"/>
      <path d="M144.5,372.5 L357.5,288.5" fill-opacity="0" stroke="#E5E5E5" stroke-width="28"/>
      <g>
        <path d="M157.5,166.5 C135.409,166.5 117.5,148.591 117.5,126.5 C117.5,104.409 135.409,86.5 157.5,86.5 C179.591,86.5 197.5,104.409 197.5,126.5 C197.5,148.591 179.591,166.5 157.5,166.5 z" fill="#E5E5E5"/>
        <path d="M157.5,166.5 C135.409,166.5 117.5,148.591 117.5,126.5 C117.5,104.409 135.409,86.5 157.5,86.5 C179.591,86.5 197.5,104.409 197.5,126.5 C197.5,148.591 179.591,166.5 157.5,166.5 z" fill-opacity="0" stroke="#E5E5E5" stroke-width="23"/>
      </g>
      <g>
        <path d="M142.5,413.5 C120.409,413.5 102.5,395.591 102.5,373.5 C102.5,351.409 120.409,333.5 142.5,333.5 C164.591,333.5 182.5,351.409 182.5,373.5 C182.5,395.591 164.591,413.5 142.5,413.5 z" fill="#E5E5E5"/>
        <path d="M142.5,413.5 C120.409,413.5 102.5,395.591 102.5,373.5 C102.5,351.409 120.409,333.5 142.5,333.5 C164.591,333.5 182.5,351.409 182.5,373.5 C182.5,395.591 164.591,413.5 142.5,413.5 z" fill-opacity="0" stroke="#E5E5E5" stroke-width="23"/>
      </g>
      <g>
        <path d="M357.5,326.5 C335.409,326.5 317.5,308.591 317.5,286.5 C317.5,264.409 335.409,246.5 357.5,246.5 C379.591,246.5 397.5,264.409 397.5,286.5 C397.5,308.591 379.591,326.5 357.5,326.5 z" fill="#E5E5E5"/>
        <path d="M357.5,326.5 C335.409,326.5 317.5,308.591 317.5,286.5 C317.5,264.409 335.409,246.5 357.5,246.5 C379.591,246.5 397.5,264.409 397.5,286.5 C397.5,308.591 379.591,326.5 357.5,326.5 z" fill-opacity="0" stroke="#E5E5E5" stroke-width="23"/>
      </g>
    </g>
  </g>
</svg>
