<?xml version="1.0" encoding="UTF-8"?>
<!DOCTYPE svg PUBLIC "-//W3C//DTD SVG 1.1//EN" "http://www.w3.org/Graphics/SVG/1.1/DTD/svg11.dtd">
<svg version="1.1" xmlns="http://www.w3.org/2000/svg" xmlns:xlink="http://www.w3.org/1999/xlink" x="0px" y="0px" width="500" height="500" viewBox="0, 0, 500, 500">
  <g id="circle">
    <g>
      <path d="M250.448,314.998 C217.312,315.246 190.249,288.584 190.002,255.448 C189.754,222.312 216.416,195.249 249.552,195.002 C282.688,194.754 309.751,221.416 309.998,254.552 C310.246,287.688 283.584,314.751 250.448,314.998 z" fill="#CFCFCF"/>
      <path d="M250,435 C150.589,435 70,354.411 70,255 C70,155.589 150.589,75 250,75 C349.411,75 430,155.589 430,255 C430,354.411 349.411,435 250,435 z" fill-opacity="0" stroke="#FFFFFF" stroke-width="30"/>
      <path d="M370,185 C336.863,185 310,158.137 310,125 C310,91.863 336.863,65 370,65 C403.137,65 430,91.863 430,125 C430,158.137 403.137,185 370,185 z" fill="#CFCFCF"/>
    </g>
  </g>
  <defs/>
</svg>
