<?xml version="1.0" encoding="UTF-8"?>
<!DOCTYPE svg PUBLIC "-//W3C//DTD SVG 1.1//EN" "http://www.w3.org/Graphics/SVG/1.1/DTD/svg11.dtd">
<svg version="1.1" xmlns="http://www.w3.org/2000/svg" xmlns:xlink="http://www.w3.org/1999/xlink" x="0px" y="0px" width="500" height="500" viewBox="0, 0, 500, 500">
  <g id="circle3pts">
    <g>
      <path d="M240,435 C140.589,435 60,354.411 60,255 C60,155.589 140.589,75 240,75 C339.411,75 420,155.589 420,255 C420,354.411 339.411,435 240,435 z" fill-opacity="0" stroke="#FFFFFF" stroke-width="30"/>
      <path d="M360,185 C326.863,185 300,158.137 300,125 C300,91.863 326.863,65 360,65 C393.137,65 420,91.863 420,125 C420,158.137 393.137,185 360,185 z" fill="#CFCFCF"/>
      <path d="M110.448,194.998 C77.312,195.246 50.249,168.584 50.002,135.448 C49.754,102.312 76.416,75.249 109.552,75.002 C142.688,74.754 169.751,101.416 169.998,134.552 C170.246,167.688 143.584,194.751 110.448,194.998 z" fill="#CFCFCF"/>
      <path d="M390.448,404.998 C357.312,405.246 330.249,378.584 330.002,345.448 C329.754,312.312 356.416,285.249 389.552,285.002 C422.688,284.754 449.751,311.416 449.998,344.552 C450.246,377.688 423.584,404.751 390.448,404.998 z" fill="#CFCFCF"/>
    </g>
  </g>
  <defs/>
</svg>
