<?xml version="1.0" encoding="UTF-8"?>
<!DOCTYPE svg PUBLIC "-//W3C//DTD SVG 1.1//EN" "http://www.w3.org/Graphics/SVG/1.1/DTD/svg11.dtd">
<svg version="1.1" xmlns="http://www.w3.org/2000/svg" xmlns:xlink="http://www.w3.org/1999/xlink" x="0" y="0" width="500" height="500" viewBox="0, 0, 500, 500">
  <g id="Calque_43">
    <path d="M251.5,143 C224.714,143 203,121.286 203,94.5 C203,67.714 224.714,46 251.5,46 C278.286,46 300,67.714 300,94.5 C300,121.286 278.286,143 251.5,143 z" fill="#E5E5E5"/>
    <path d="M349.5,274 C327.132,274 309,255.868 309,233.5 C309,211.132 327.132,193 349.5,193 C371.868,193 390,211.132 390,233.5 C390,255.868 371.868,274 349.5,274 z" fill="#E5E5E5"/>
    <path d="M401.5,427 C379.132,427 361,408.868 361,386.5 C361,364.132 379.132,346 401.5,346 C423.868,346 442,364.132 442,386.5 C442,408.868 423.868,427 401.5,427 z" fill="#E5E5E5"/>
    <path d="M302.5,429 C280.132,429 262,410.868 262,388.5 C262,366.132 280.132,348 302.5,348 C324.868,348 343,366.132 343,388.5 C343,410.868 324.868,429 302.5,429 z" fill="#E5E5E5"/>
    <path d="M150.5,273 C128.132,273 110,254.868 110,232.5 C110,210.132 128.132,192 150.5,192 C172.868,192 191,210.132 191,232.5 C191,254.868 172.868,273 150.5,273 z" fill="#E5E5E5"/>
    <path d="M202.5,428 C180.132,428 162,409.868 162,387.5 C162,365.132 180.132,347 202.5,347 C224.868,347 243,365.132 243,387.5 C243,409.868 224.868,428 202.5,428 z" fill="#E5E5E5"/>
    <path d="M100.5,429 C78.132,429 60,410.868 60,388.5 C60,366.132 78.132,348 100.5,348 C122.868,348 141,366.132 141,388.5 C141,410.868 122.868,429 100.5,429 z" fill="#E5E5E5"/>
    <path d="M250,94 L150,233" fill-opacity="0" stroke="#E5E5E5" stroke-width="23"/>
    <path d="M150,245 L100,386" fill-opacity="0" stroke="#E5E5E5" stroke-width="23"/>
    <path d="M150,245 L200,386" fill-opacity="0" stroke="#E5E5E5" stroke-width="23"/>
    <path d="M250,92 L350,233" fill-opacity="0" stroke="#E5E5E5" stroke-width="23"/>
    <path d="M350,233 L400,386" fill-opacity="0" stroke="#E5E5E5" stroke-width="23"/>
    <path d="M350,233 L301,386" fill-opacity="0" stroke="#E5E5E5" stroke-width="23"/>
  </g>
</svg>
