<?xml version="1.0" encoding="UTF-8"?>
<!DOCTYPE svg PUBLIC "-//W3C//DTD SVG 1.1//EN" "http://www.w3.org/Graphics/SVG/1.1/DTD/svg11.dtd">
<svg version="1.1" xmlns="http://www.w3.org/2000/svg" xmlns:xlink="http://www.w3.org/1999/xlink" x="0" y="0" width="500" height="500" viewBox="0, 0, 500, 500">
  <g id="Calque_1">
    <path d="M316.635,228.372 Q297.632,245.624 274.003,259.376 Q250.375,273.128 223.871,285.63 L211.619,339.888 L166.863,339.888 L184.366,263.627 Q203.118,254.876 228.372,241.749 Q253.626,228.622 267.878,216.87 Q287.88,200.368 297.132,183.74 Q306.383,167.113 306.383,145.86 Q306.383,124.107 290.256,112.605 Q274.128,101.104 247.625,101.104 Q223.621,101.104 197.492,108.605 Q171.364,116.106 152.361,126.857 L149.861,126.857 L161.112,78.1 Q179.615,71.349 207.494,65.723 Q235.373,60.098 259.376,60.098 Q306.633,60.098 332.637,80.976 Q358.641,101.854 358.641,136.359 Q358.641,165.363 347.264,188.116 Q335.887,210.869 316.635,228.372 z M192.367,439.902 L141.359,439.902 L153.611,387.145 L204.618,387.145 z" fill="#E5E5E5"/>
  </g>
</svg>
