<?xml version="1.0" encoding="UTF-8" standalone="no"?>
<svg
   xmlns:osb="http://www.openswatchbook.org/uri/2009/osb"
   xmlns:dc="http://purl.org/dc/elements/1.1/"
   xmlns:cc="http://creativecommons.org/ns#"
   xmlns:rdf="http://www.w3.org/1999/02/22-rdf-syntax-ns#"
   xmlns:svg="http://www.w3.org/2000/svg"
   xmlns="http://www.w3.org/2000/svg"
   xmlns:sodipodi="http://sodipodi.sourceforge.net/DTD/sodipodi-0.dtd"
   xmlns:inkscape="http://www.inkscape.org/namespaces/inkscape"
   version="1.1"
   x="0px"
   y="0px"
   width="500"
   height="500"
   viewBox="0, 0, 500, 500"
   id="svg2"
   inkscape:version="0.91 r"
   sodipodi:docname="fixedangle.svg">
  <metadata
     id="metadata27">
    <rdf:RDF>
      <cc:Work
         rdf:about="">
        <dc:format>image/svg+xml</dc:format>
        <dc:type
           rdf:resource="http://purl.org/dc/dcmitype/StillImage" />
      </cc:Work>
    </rdf:RDF>
  </metadata>
  <sodipodi:namedview
     pagecolor="#ffffff"
     bordercolor="#666666"
     borderopacity="1"
     objecttolerance="10"
     gridtolerance="10"
     guidetolerance="10"
     inkscape:pageopacity="0"
     inkscape:pageshadow="2"
     inkscape:window-width="2013"
     inkscape:window-height="1186"
     id="namedview25"
     showgrid="false"
     inkscape:zoom="1.3350176"
     inkscape:cx="8.9495684"
     inkscape:cy="246.62515"
     inkscape:window-x="0"
     inkscape:window-y="64"
     inkscape:window-maximized="0"
     inkscape:current-layer="svg2" />
  <path
     d="m 217.93049,258.96385 c 21.20997,32.44554 33.47323,70.82562 33.47323,111.95344 0,2.21376 -0.0357,4.4196 -0.10579,6.61753"
     id="path7"
     inkscape:connector-curvature="0"
     style="fill-opacity:1;stroke:#ffffff;stroke-width:26.91806412;fill:#467700;stroke-opacity:1" />
  <path
     d="M 351.94091,104.60683 100.64425,364.50293"
     id="path11"
     inkscape:connector-curvature="0"
     style="fill-opacity:0;stroke:#ffffff;stroke-width:30;stroke-linecap:round" />
  <path
     d="m 95.299,414.999 c -22.091,0.165 -40.133,-17.61 -40.298,-39.7 -0.165,-22.091 17.61,-40.133 39.7,-40.298 22.091,-0.165 40.133,17.61 40.298,39.7 0.165,22.091 -17.609,40.133 -39.7,40.298 z"
     id="path15"
     inkscape:connector-curvature="0"
     style="fill:#cfcfcf" />
  <path
     d="m 385,425 c -22.091,0 -40,-17.909 -40,-40 0,-22.091 17.909,-40 40,-40 22.091,0 40,17.909 40,40 0,22.091 -17.909,40 -40,40 z"
     id="path17"
     inkscape:connector-curvature="0"
     style="fill:#cfcfcf" />
  <path
     d="M 94.582136,374.58679 392.23504,385.41321"
     id="path21"
     inkscape:connector-curvature="0"
     style="fill-opacity:0;stroke:#cfcfcf;stroke-width:19.19082642;stroke-linecap:round" />
  <defs
     id="defs23">
    <linearGradient
       id="linearGradient4154"
       osb:paint="solid">
      <stop
         style="stop-color:#000000;stop-opacity:1;"
         offset="0"
         id="stop4156" />
    </linearGradient>
  </defs>
</svg>
