<?xml version="1.0" encoding="UTF-8"?>
<!DOCTYPE svg PUBLIC "-//W3C//DTD SVG 1.1//EN" "http://www.w3.org/Graphics/SVG/1.1/DTD/svg11.dtd">
<svg version="1.1" xmlns="http://www.w3.org/2000/svg" xmlns:xlink="http://www.w3.org/1999/xlink" x="0px" y="0px" width="500" height="500" viewBox="0, 0, 500, 500">
  <g id="line">
    <g>
      <path d="M418,76 L82,424" fill-opacity="0" stroke="#FFFFFF" stroke-width="30" stroke-linecap="round"/>
      <path d="M322,232 C288.863,232 262,205.137 262,172 C262,138.863 288.863,112 322,112 C355.137,112 382,138.863 382,172 C382,205.137 355.137,232 322,232 z" fill="#CFCFCF"/>
      <path d="M178.448,387.998 C145.312,388.246 118.249,361.584 118.002,328.448 C117.754,295.312 144.416,268.249 177.552,268.002 C210.688,267.754 237.751,294.416 237.998,327.552 C238.246,360.688 211.584,387.751 178.448,387.998 z" fill="#CFCFCF"/>
    </g>
  </g>
  <defs/>
</svg>
