<?xml version="1.0" encoding="UTF-8"?>
<!DOCTYPE svg PUBLIC "-//W3C//DTD SVG 1.1//EN" "http://www.w3.org/Graphics/SVG/1.1/DTD/svg11.dtd">
<svg version="1.1" xmlns="http://www.w3.org/2000/svg" xmlns:xlink="http://www.w3.org/1999/xlink" x="0px" y="0px" width="500" height="500" viewBox="0, 0, 500, 500">
  <g id="locus">
    <g>
      <path d="M280.404,108.818 L282.07,109.597" fill-opacity="0" stroke="#CFCFCF" stroke-width="30" stroke-linecap="round"/>
      <path d="M282.07,109.597 L291.807,114.966" fill-opacity="0" stroke="#CFCFCF" stroke-width="30" stroke-linecap="round"/>
      <path d="M292.605,115.475 L301.62,122.099" fill-opacity="0" stroke="#CFCFCF" stroke-width="30" stroke-linecap="round"/>
      <path d="M305.321,125.381 L309.666,129.751" fill-opacity="0" stroke="#CFCFCF" stroke-width="30" stroke-linecap="round"/>
      <path d="M301.62,122.099 L305.321,125.381" fill-opacity="0" stroke="#CFCFCF" stroke-width="30" stroke-linecap="round"/>
      <path d="M309.666,129.751 L314.463,135.457" fill-opacity="0" stroke="#CFCFCF" stroke-width="30" stroke-linecap="round"/>
      <path d="M314.463,135.457 L316.555,138.338" fill-opacity="0" stroke="#CFCFCF" stroke-width="30" stroke-linecap="round"/>
      <path d="M319.165,142.412 L322.179,147.951" fill-opacity="0" stroke="#CFCFCF" stroke-width="30" stroke-linecap="round"/>
      <path d="M316.555,138.338 L319.165,142.412" fill-opacity="0" stroke="#CFCFCF" stroke-width="30" stroke-linecap="round"/>
      <path d="M322.179,147.951 L323.44,150.695" fill-opacity="0" stroke="#CFCFCF" stroke-width="30" stroke-linecap="round"/>
      <path d="M323.44,150.695 L326.279,158.797" fill-opacity="0" stroke="#CFCFCF" stroke-width="30" stroke-linecap="round"/>
      <path d="M326.279,158.797 L327.501,164.047" fill-opacity="0" stroke="#CFCFCF" stroke-width="30" stroke-linecap="round"/>
      <path d="M349.414,192.637 L352.768,194.014" fill-opacity="0" stroke="#CFCFCF" stroke-width="30" stroke-linecap="round"/>
      <path d="M361.535,198.789 L363.075,199.835" fill-opacity="0" stroke="#CFCFCF" stroke-width="30" stroke-linecap="round"/>
      <path d="M352.768,194.014 L361.535,198.789" fill-opacity="0" stroke="#CFCFCF" stroke-width="30" stroke-linecap="round"/>
      <path d="M363.075,199.835 L366.954,202.778" fill-opacity="0" stroke="#CFCFCF" stroke-width="30" stroke-linecap="round"/>
      <path d="M366.954,202.778 L371.729,206.994" fill-opacity="0" stroke="#CFCFCF" stroke-width="30" stroke-linecap="round"/>
      <path d="M374.415,209.731 L379.064,215.22" fill-opacity="0" stroke="#CFCFCF" stroke-width="30" stroke-linecap="round"/>
      <path d="M371.729,206.994 L374.415,209.731" fill-opacity="0" stroke="#CFCFCF" stroke-width="30" stroke-linecap="round"/>
      <path d="M379.064,215.22 L382.95,220.711" fill-opacity="0" stroke="#CFCFCF" stroke-width="30" stroke-linecap="round"/>
      <path d="M382.95,220.711 L385.223,224.4" fill-opacity="0" stroke="#CFCFCF" stroke-width="30" stroke-linecap="round"/>
      <path d="M389.058,231.804 L390.245,234.5" fill-opacity="0" stroke="#CFCFCF" stroke-width="30" stroke-linecap="round"/>
      <path d="M385.223,224.4 L389.058,231.804" fill-opacity="0" stroke="#CFCFCF" stroke-width="30" stroke-linecap="round"/>
      <path d="M390.245,234.5 L390.64,235.456" fill-opacity="0" stroke="#CFCFCF" stroke-width="30" stroke-linecap="round"/>
      <path d="M390.64,235.456 L394.102,245.544" fill-opacity="0" stroke="#CFCFCF" stroke-width="30" stroke-linecap="round"/>
      <path d="M394.102,245.544 L394.986,248.917" fill-opacity="0" stroke="#CFCFCF" stroke-width="30" stroke-linecap="round"/>
      <path d="M256.927,101.347 L257.202,101.401" fill-opacity="0" stroke="#CFCFCF" stroke-width="30" stroke-linecap="round"/>
      <path d="M268.538,104.278 L270.4,104.88" fill-opacity="0" stroke="#CFCFCF" stroke-width="30" stroke-linecap="round"/>
      <path d="M257.202,101.401 L268.538,104.278" fill-opacity="0" stroke="#CFCFCF" stroke-width="30" stroke-linecap="round"/>
      <path d="M270.4,104.88 L280.404,108.818" fill-opacity="0" stroke="#CFCFCF" stroke-width="30" stroke-linecap="round"/>
      <path d="M291.807,114.967 L292.438,115.368" fill-opacity="0" stroke="#CFCFCF" stroke-width="30" stroke-linecap="round"/>
      <path d="M292.438,115.368 L292.605,115.475" fill-opacity="0" stroke="#CFCFCF" stroke-width="30" stroke-linecap="round"/>
      <path d="M327.501,164.047 L328.233,171.382" fill-opacity="0" stroke="#CFCFCF" stroke-width="30" stroke-linecap="round"/>
      <path d="M328.233,171.382 L328.221,176.117" fill-opacity="0" stroke="#CFCFCF" stroke-width="30" stroke-linecap="round"/>
      <path d="M328.221,176.117 L326.095,186.162" fill-opacity="0" stroke="#CFCFCF" stroke-width="30" stroke-linecap="round"/>
      <path d="M337.837,189.922 L339.957,190.222" fill-opacity="0" stroke="#CFCFCF" stroke-width="30" stroke-linecap="round"/>
      <path d="M337.837,189.922 L333.709,190.016" fill-opacity="0" stroke="#CFCFCF" stroke-width="30" stroke-linecap="round"/>
      <path d="M339.957,190.222 L349.414,192.637" fill-opacity="0" stroke="#CFCFCF" stroke-width="30" stroke-linecap="round"/>
      <path d="M394.986,248.917 L396.703,257.604" fill-opacity="0" stroke="#CFCFCF" stroke-width="30" stroke-linecap="round"/>
      <path d="M396.703,257.604 L397.226,261.57" fill-opacity="0" stroke="#CFCFCF" stroke-width="30" stroke-linecap="round"/>
      <path d="M397.226,261.57 L397.859,270.835" fill-opacity="0" stroke="#CFCFCF" stroke-width="30" stroke-linecap="round"/>
      <path d="M397.859,270.835 L397.89,273.617" fill-opacity="0" stroke="#CFCFCF" stroke-width="30" stroke-linecap="round"/>
      <path d="M256.927,101.347 L255.752,101.127" fill-opacity="0" stroke="#CFCFCF" stroke-width="30" stroke-linecap="round"/>
      <path d="M255.752,101.126 L245.527,99.751" fill-opacity="0" stroke="#CFCFCF" stroke-width="30" stroke-linecap="round"/>
      <path d="M326.095,186.162 L325.794,186.978" fill-opacity="0" stroke="#CFCFCF" stroke-width="30" stroke-linecap="round"/>
      <path d="M325.794,186.978 L325.225,187.985" fill-opacity="0" stroke="#CFCFCF" stroke-width="30" stroke-linecap="round"/>
      <path d="M333.709,190.016 L326.751,190.305" fill-opacity="0" stroke="#CFCFCF" stroke-width="30" stroke-linecap="round"/>
      <path d="M325.225,187.985 L326.751,190.305" fill-opacity="0" stroke="#CFCFCF" stroke-width="30" stroke-linecap="round"/>
      <path d="M397.89,273.617 L397.36,284.218" fill-opacity="0" stroke="#CFCFCF" stroke-width="30" stroke-linecap="round"/>
      <path d="M397.36,284.218 L397.263,285.17" fill-opacity="0" stroke="#CFCFCF" stroke-width="30" stroke-linecap="round"/>
      <path d="M223.265,99.953 L224.105,99.869" fill-opacity="0" stroke="#CFCFCF" stroke-width="30" stroke-linecap="round"/>
      <path d="M234.312,99.322 L242.056,99.499" fill-opacity="0" stroke="#CFCFCF" stroke-width="30" stroke-linecap="round"/>
      <path d="M224.105,99.869 L234.312,99.322" fill-opacity="0" stroke="#CFCFCF" stroke-width="30" stroke-linecap="round"/>
      <path d="M242.056,99.499 L245.527,99.751" fill-opacity="0" stroke="#CFCFCF" stroke-width="30" stroke-linecap="round"/>
      <path d="M397.262,285.17 L397.225,285.515" fill-opacity="0" stroke="#CFCFCF" stroke-width="30" stroke-linecap="round"/>
      <path d="M397.225,285.515 L395.51,296.29" fill-opacity="0" stroke="#CFCFCF" stroke-width="30" stroke-linecap="round"/>
      <path d="M395.51,296.29 L394.122,302.195" fill-opacity="0" stroke="#CFCFCF" stroke-width="30" stroke-linecap="round"/>
      <path d="M394.122,302.195 L392.742,307.02" fill-opacity="0" stroke="#CFCFCF" stroke-width="30" stroke-linecap="round"/>
      <path d="M223.265,99.953 L222.26,100.063" fill-opacity="0" stroke="#CFCFCF" stroke-width="30" stroke-linecap="round"/>
      <path d="M222.26,100.063 L212.379,101.596" fill-opacity="0" stroke="#CFCFCF" stroke-width="30" stroke-linecap="round"/>
      <path d="M392.742,307.02 L390.756,312.905" fill-opacity="0" stroke="#CFCFCF" stroke-width="30" stroke-linecap="round"/>
      <path d="M390.756,312.905 L389.016,317.383" fill-opacity="0" stroke="#CFCFCF" stroke-width="30" stroke-linecap="round"/>
      <path d="M212.379,101.596 L202.048,104.097" fill-opacity="0" stroke="#CFCFCF" stroke-width="30" stroke-linecap="round"/>
      <path d="M202.048,104.097 L201.646,104.213" fill-opacity="0" stroke="#CFCFCF" stroke-width="30" stroke-linecap="round"/>
      <path d="M389.016,317.383 L386.912,322.2" fill-opacity="0" stroke="#CFCFCF" stroke-width="30" stroke-linecap="round"/>
      <path d="M386.912,322.2 L384.363,327.39" fill-opacity="0" stroke="#CFCFCF" stroke-width="30" stroke-linecap="round"/>
      <path d="M384.363,327.39 L382.461,330.906" fill-opacity="0" stroke="#CFCFCF" stroke-width="30" stroke-linecap="round"/>
      <path d="M191.069,107.811 L201.016,104.399" fill-opacity="0" stroke="#CFCFCF" stroke-width="30" stroke-linecap="round"/>
      <path d="M191.069,107.811 L186.222,109.815" fill-opacity="0" stroke="#CFCFCF" stroke-width="30" stroke-linecap="round"/>
      <path d="M201.016,104.399 L201.646,104.213" fill-opacity="0" stroke="#CFCFCF" stroke-width="30" stroke-linecap="round"/>
      <path d="M382.461,330.906 L378.786,337.042" fill-opacity="0" stroke="#CFCFCF" stroke-width="30" stroke-linecap="round"/>
      <path d="M378.786,337.042 L373.5,344.708" fill-opacity="0" stroke="#CFCFCF" stroke-width="30" stroke-linecap="round"/>
      <path d="M186.222,109.815 L180.65,112.408" fill-opacity="0" stroke="#CFCFCF" stroke-width="30" stroke-linecap="round"/>
      <path d="M180.65,112.408 L172.976,116.523" fill-opacity="0" stroke="#CFCFCF" stroke-width="30" stroke-linecap="round"/>
      <path d="M373.5,344.708 L372.271,346.334" fill-opacity="0" stroke="#CFCFCF" stroke-width="30" stroke-linecap="round"/>
      <path d="M372.271,346.334 L367.782,351.858" fill-opacity="0" stroke="#CFCFCF" stroke-width="30" stroke-linecap="round"/>
      <path d="M367.782,351.858 L364.77,355.247" fill-opacity="0" stroke="#CFCFCF" stroke-width="30" stroke-linecap="round"/>
      <path d="M172.976,116.523 L170.398,118.055" fill-opacity="0" stroke="#CFCFCF" stroke-width="30" stroke-linecap="round"/>
      <path d="M170.398,118.055 L161.56,123.934" fill-opacity="0" stroke="#CFCFCF" stroke-width="30" stroke-linecap="round"/>
      <path d="M364.77,355.247 L364.131,355.937" fill-opacity="0" stroke="#CFCFCF" stroke-width="30" stroke-linecap="round"/>
      <path d="M364.131,355.937 L356.21,363.755" fill-opacity="0" stroke="#CFCFCF" stroke-width="30" stroke-linecap="round"/>
      <path d="M161.56,123.934 L160.325,124.838" fill-opacity="0" stroke="#CFCFCF" stroke-width="30" stroke-linecap="round"/>
      <path d="M160.325,124.838 L151.573,131.894" fill-opacity="0" stroke="#CFCFCF" stroke-width="30" stroke-linecap="round"/>
      <path d="M356.21,363.755 L354.469,365.31" fill-opacity="0" stroke="#CFCFCF" stroke-width="30" stroke-linecap="round"/>
      <path d="M354.469,365.31 L346.477,371.811" fill-opacity="0" stroke="#CFCFCF" stroke-width="30" stroke-linecap="round"/>
      <path d="M151.573,131.894 L150.453,132.886" fill-opacity="0" stroke="#CFCFCF" stroke-width="30" stroke-linecap="round"/>
      <path d="M150.453,132.886 L142.774,140.309" fill-opacity="0" stroke="#CFCFCF" stroke-width="30" stroke-linecap="round"/>
      <path d="M346.477,371.811 L344.575,373.219" fill-opacity="0" stroke="#CFCFCF" stroke-width="30" stroke-linecap="round"/>
      <path d="M344.575,373.219 L335.395,379.35" fill-opacity="0" stroke="#CFCFCF" stroke-width="30" stroke-linecap="round"/>
      <path d="M142.774,140.309 L140.813,142.397" fill-opacity="0" stroke="#CFCFCF" stroke-width="30" stroke-linecap="round"/>
      <path d="M140.813,142.397 L135.006,149.12" fill-opacity="0" stroke="#CFCFCF" stroke-width="30" stroke-linecap="round"/>
      <path d="M324.228,385.515 L329.85,382.575" fill-opacity="0" stroke="#CFCFCF" stroke-width="30" stroke-linecap="round"/>
      <path d="M335.395,379.351 L334.486,379.902" fill-opacity="0" stroke="#CFCFCF" stroke-width="30" stroke-linecap="round"/>
      <path d="M329.85,382.575 L334.486,379.902" fill-opacity="0" stroke="#CFCFCF" stroke-width="30" stroke-linecap="round"/>
      <path d="M135.006,149.12 L131.454,153.686" fill-opacity="0" stroke="#CFCFCF" stroke-width="30" stroke-linecap="round"/>
      <path d="M131.454,153.686 L128.162,158.286" fill-opacity="0" stroke="#CFCFCF" stroke-width="30" stroke-linecap="round"/>
      <path d="M324.228,385.515 L322.688,386.266" fill-opacity="0" stroke="#CFCFCF" stroke-width="30" stroke-linecap="round"/>
      <path d="M322.688,386.266 L313.817,390.161" fill-opacity="0" stroke="#CFCFCF" stroke-width="30" stroke-linecap="round"/>
      <path d="M128.162,158.286 L122.46,167.282" fill-opacity="0" stroke="#CFCFCF" stroke-width="30" stroke-linecap="round"/>
      <path d="M122.46,167.282 L122.171,167.779" fill-opacity="0" stroke="#CFCFCF" stroke-width="30" stroke-linecap="round"/>
      <path d="M313.817,390.161 L307.896,392.38" fill-opacity="0" stroke="#CFCFCF" stroke-width="30" stroke-linecap="round"/>
      <path d="M307.896,392.38 L303.265,393.914" fill-opacity="0" stroke="#CFCFCF" stroke-width="30" stroke-linecap="round"/>
      <path d="M122.171,167.779 L121.671,168.651" fill-opacity="0" stroke="#CFCFCF" stroke-width="30" stroke-linecap="round"/>
      <path d="M121.671,168.652 L116.988,177.582" fill-opacity="0" stroke="#CFCFCF" stroke-width="30" stroke-linecap="round"/>
      <path d="M116.988,177.582 L113.994,184.21" fill-opacity="0" stroke="#CFCFCF" stroke-width="30" stroke-linecap="round"/>
      <path d="M292.578,396.821 L295.702,396.061" fill-opacity="0" stroke="#CFCFCF" stroke-width="30" stroke-linecap="round"/>
      <path d="M292.578,396.821 L290.154,397.363" fill-opacity="0" stroke="#CFCFCF" stroke-width="30" stroke-linecap="round"/>
      <path d="M295.702,396.061 L303.265,393.914" fill-opacity="0" stroke="#CFCFCF" stroke-width="30" stroke-linecap="round"/>
      <path d="M113.994,184.21 L112.579,187.683" fill-opacity="0" stroke="#CFCFCF" stroke-width="30" stroke-linecap="round"/>
      <path d="M112.579,187.683 L111.218,191.283" fill-opacity="0" stroke="#CFCFCF" stroke-width="30" stroke-linecap="round"/>
      <path d="M111.218,191.283 L108.931,198.076" fill-opacity="0" stroke="#CFCFCF" stroke-width="30" stroke-linecap="round"/>
      <path d="M270.819,400.197 L273.381,399.968" fill-opacity="0" stroke="#CFCFCF" stroke-width="30" stroke-linecap="round"/>
      <path d="M290.154,397.363 L281.762,398.91" fill-opacity="0" stroke="#CFCFCF" stroke-width="30" stroke-linecap="round"/>
      <path d="M273.381,399.968 L281.762,398.91" fill-opacity="0" stroke="#CFCFCF" stroke-width="30" stroke-linecap="round"/>
      <path d="M108.931,198.076 L106.458,207.006" fill-opacity="0" stroke="#CFCFCF" stroke-width="30" stroke-linecap="round"/>
      <path d="M106.458,207.006 L106.041,208.759" fill-opacity="0" stroke="#CFCFCF" stroke-width="30" stroke-linecap="round"/>
      <path d="M270.819,400.197 L267.426,400.431" fill-opacity="0" stroke="#CFCFCF" stroke-width="30" stroke-linecap="round"/>
      <path d="M267.426,400.431 L259.749,400.678" fill-opacity="0" stroke="#CFCFCF" stroke-width="30" stroke-linecap="round"/>
      <path d="M106.041,208.759 L105.795,209.841" fill-opacity="0" stroke="#CFCFCF" stroke-width="30" stroke-linecap="round"/>
      <path d="M105.795,209.841 L103.923,219.739" fill-opacity="0" stroke="#CFCFCF" stroke-width="30" stroke-linecap="round"/>
      <path d="M103.923,219.739 L103.058,226.224" fill-opacity="0" stroke="#CFCFCF" stroke-width="30" stroke-linecap="round"/>
      <path d="M103.058,226.224 L102.599,231.024" fill-opacity="0" stroke="#CFCFCF" stroke-width="30" stroke-linecap="round"/>
      <path d="M237.215,399.161 L239.077,399.414" fill-opacity="0" stroke="#CFCFCF" stroke-width="30" stroke-linecap="round"/>
      <path d="M248.549,400.343 L255.06,400.638" fill-opacity="0" stroke="#CFCFCF" stroke-width="30" stroke-linecap="round"/>
      <path d="M239.077,399.414 L248.549,400.343" fill-opacity="0" stroke="#CFCFCF" stroke-width="30" stroke-linecap="round"/>
      <path d="M255.06,400.638 L259.749,400.678" fill-opacity="0" stroke="#CFCFCF" stroke-width="30" stroke-linecap="round"/>
      <path d="M102.599,231.023 L102.124,241.147" fill-opacity="0" stroke="#CFCFCF" stroke-width="30" stroke-linecap="round"/>
      <path d="M102.124,241.147 L102.11,242.629" fill-opacity="0" stroke="#CFCFCF" stroke-width="30" stroke-linecap="round"/>
      <path d="M102.11,242.629 L102.31,251.195" fill-opacity="0" stroke="#CFCFCF" stroke-width="30" stroke-linecap="round"/>
      <path d="M237.215,399.161 L230.532,398.062" fill-opacity="0" stroke="#CFCFCF" stroke-width="30" stroke-linecap="round"/>
      <path d="M230.532,398.062 L225.739,397.086" fill-opacity="0" stroke="#CFCFCF" stroke-width="30" stroke-linecap="round"/>
      <path d="M102.31,251.195 L102.52,254.579" fill-opacity="0" stroke="#CFCFCF" stroke-width="30" stroke-linecap="round"/>
      <path d="M102.52,254.579 L102.549,254.97" fill-opacity="0" stroke="#CFCFCF" stroke-width="30" stroke-linecap="round"/>
      <path d="M102.549,254.97 L103.914,266.907" fill-opacity="0" stroke="#CFCFCF" stroke-width="30" stroke-linecap="round"/>
      <path d="M202.316,389.954 L211.658,393.284" fill-opacity="0" stroke="#CFCFCF" stroke-width="30" stroke-linecap="round"/>
      <path d="M214.111,394.049 L224.735,396.861" fill-opacity="0" stroke="#CFCFCF" stroke-width="30" stroke-linecap="round"/>
      <path d="M211.658,393.284 L214.111,394.049" fill-opacity="0" stroke="#CFCFCF" stroke-width="30" stroke-linecap="round"/>
      <path d="M224.735,396.861 L225.739,397.086" fill-opacity="0" stroke="#CFCFCF" stroke-width="30" stroke-linecap="round"/>
      <path d="M103.914,266.907 L104.07,267.905" fill-opacity="0" stroke="#CFCFCF" stroke-width="30" stroke-linecap="round"/>
      <path d="M104.07,267.905 L106.419,279.662" fill-opacity="0" stroke="#CFCFCF" stroke-width="30" stroke-linecap="round"/>
      <path d="M106.419,279.662 L106.521,280.087" fill-opacity="0" stroke="#CFCFCF" stroke-width="30" stroke-linecap="round"/>
      <path d="M107.478,283.827 L109.788,291.608" fill-opacity="0" stroke="#CFCFCF" stroke-width="30" stroke-linecap="round"/>
      <path d="M106.521,280.087 L107.478,283.827" fill-opacity="0" stroke="#CFCFCF" stroke-width="30" stroke-linecap="round"/>
      <path d="M109.788,291.608 L110.219,292.913" fill-opacity="0" stroke="#CFCFCF" stroke-width="30" stroke-linecap="round"/>
      <path d="M110.219,292.913 L113.792,302.533" fill-opacity="0" stroke="#CFCFCF" stroke-width="30" stroke-linecap="round"/>
      <path d="M113.792,302.533 L115.596,306.771" fill-opacity="0" stroke="#CFCFCF" stroke-width="30" stroke-linecap="round"/>
      <path d="M165.639,369.525 L168.469,371.591" fill-opacity="0" stroke="#CFCFCF" stroke-width="30" stroke-linecap="round"/>
      <path d="M168.469,371.591 L178.064,377.921" fill-opacity="0" stroke="#CFCFCF" stroke-width="30" stroke-linecap="round"/>
      <path d="M178.121,377.956 L188.471,383.727" fill-opacity="0" stroke="#CFCFCF" stroke-width="30" stroke-linecap="round"/>
      <path d="M190.33,384.659 L199.619,388.866" fill-opacity="0" stroke="#CFCFCF" stroke-width="30" stroke-linecap="round"/>
      <path d="M188.471,383.727 L190.33,384.659" fill-opacity="0" stroke="#CFCFCF" stroke-width="30" stroke-linecap="round"/>
      <path d="M199.619,388.866 L202.316,389.954" fill-opacity="0" stroke="#CFCFCF" stroke-width="30" stroke-linecap="round"/>
      <path d="M115.596,306.771 L118.476,312.907" fill-opacity="0" stroke="#CFCFCF" stroke-width="30" stroke-linecap="round"/>
      <path d="M118.476,312.907 L123.017,321.412" fill-opacity="0" stroke="#CFCFCF" stroke-width="30" stroke-linecap="round"/>
      <path d="M123.017,321.412 L123.8,322.762" fill-opacity="0" stroke="#CFCFCF" stroke-width="30" stroke-linecap="round"/>
      <path d="M125.149,325.016 L129.742,332.117" fill-opacity="0" stroke="#CFCFCF" stroke-width="30" stroke-linecap="round"/>
      <path d="M123.8,322.762 L125.149,325.016" fill-opacity="0" stroke="#CFCFCF" stroke-width="30" stroke-linecap="round"/>
      <path d="M129.742,332.117 L133.352,337.172" fill-opacity="0" stroke="#CFCFCF" stroke-width="30" stroke-linecap="round"/>
      <path d="M133.353,337.172 L136.283,340.987" fill-opacity="0" stroke="#CFCFCF" stroke-width="30" stroke-linecap="round"/>
      <path d="M139.436,344.84 L143.418,349.376" fill-opacity="0" stroke="#CFCFCF" stroke-width="30" stroke-linecap="round"/>
      <path d="M136.283,340.987 L139.436,344.84" fill-opacity="0" stroke="#CFCFCF" stroke-width="30" stroke-linecap="round"/>
      <path d="M143.418,349.376 L148.64,354.834" fill-opacity="0" stroke="#CFCFCF" stroke-width="30" stroke-linecap="round"/>
      <path d="M148.64,354.834 L151.151,357.281" fill-opacity="0" stroke="#CFCFCF" stroke-width="30" stroke-linecap="round"/>
      <path d="M152.798,358.829 L159.494,364.691" fill-opacity="0" stroke="#CFCFCF" stroke-width="30" stroke-linecap="round"/>
      <path d="M151.151,357.281 L152.798,358.829" fill-opacity="0" stroke="#CFCFCF" stroke-width="30" stroke-linecap="round"/>
      <path d="M159.494,364.691 L165.639,369.525" fill-opacity="0" stroke="#CFCFCF" stroke-width="30" stroke-linecap="round"/>
      <path d="M178.064,377.921 L178.111,377.95" fill-opacity="0" stroke="#CFCFCF" stroke-width="30" stroke-linecap="round"/>
      <path d="M178.111,377.95 L178.122,377.956" fill-opacity="0" stroke="#CFCFCF" stroke-width="30" stroke-linecap="round"/>
    </g>
  </g>
  <defs/>
</svg>
