<?xml version="1.0" encoding="UTF-8"?>
<!DOCTYPE svg PUBLIC "-//W3C//DTD SVG 1.1//EN" "http://www.w3.org/Graphics/SVG/1.1/DTD/svg11.dtd">
<svg version="1.1" xmlns="http://www.w3.org/2000/svg" xmlns:xlink="http://www.w3.org/1999/xlink" x="0" y="0" width="120.585" height="120" viewBox="0, 0, 120.585, 120">
  <g id="layer1" transform="translate(0, 0)">
    <path d="M3.4,5.924 L114.583,5.924 L114.583,113.952 L3.4,113.952 z" fill="url(#Gradient_1)"/>
    <path d="M1.376,0 C0.833,0 0.401,0.703 0.401,1.572 L0.401,116.868 C0.401,117.736 0.833,118.427 1.376,118.427 L117.739,118.427 C118.282,118.427 118.722,117.736 118.722,116.868 L118.722,1.572 C118.722,0.703 118.282,0 117.739,0 L1.376,0 z M9.314,11.067 L109.547,11.067 C110.09,11.067 110.522,11.77 110.522,12.639 L110.522,106.625 C110.522,107.494 110.09,108.184 109.547,108.184 L9.314,108.184 C8.772,108.184 8.34,107.494 8.34,106.625 L8.34,12.639 C8.34,11.77 8.772,11.067 9.314,11.067 z" fill="url(#Gradient_2)" id="path4899"/>
    <path d="M1.253,1.182 C0.701,1.182 0.262,1.887 0.262,2.759 L0.262,118.436 C0.262,119.307 0.701,120 1.253,120 L119.586,120 C120.138,120 120.585,119.307 120.585,118.436 L120.585,2.759 C120.585,1.887 120.138,1.182 119.586,1.182 L1.253,1.182 z M9.326,12.285 L111.255,12.285 C111.807,12.285 112.246,12.991 112.246,13.862 L112.246,108.159 C112.246,109.03 111.807,109.723 111.255,109.723 L9.326,109.723 C8.774,109.723 8.335,109.03 8.335,108.159 L8.335,13.862 C8.335,12.991 8.774,12.285 9.326,12.285 z" fill="#3163A6" id="path4901"/>
    <path d="M7.159,7.183 C6.637,7.183 6.223,7.865 6.223,8.709 L6.223,106.796 C6.223,107.64 6.637,108.322 7.159,108.322 L9.015,108.322 L9.015,13.593 C9.015,12.776 9.423,12.118 9.928,12.118 L109.947,12.118 C110.452,12.118 110.859,12.776 110.859,13.593 L110.859,108.322 L112.833,108.322 C113.356,108.322 113.777,107.64 113.777,106.796 L113.777,8.709 C113.777,7.865 113.356,7.183 112.833,7.183 L7.159,7.183 z" fill="url(#Gradient_3)" id="path4903"/>
    <path d="M118.874,3.306 C108.072,3.54 97.264,3.308 86.459,3.395 C57.731,3.429 28.99,3.32 0.27,3.472 C-0.399,4.972 0.428,7.051 0.092,8.775 C0.127,45.689 0.02,82.604 0.148,119.517 C1.331,120.515 2.765,119.225 4.048,119.771 C42.599,119.703 81.151,119.89 119.703,119.67 C120.338,117.796 119.51,115.575 119.857,113.565 C119.798,76.897 119.977,40.16 119.76,3.535 C119.514,3.239 119.17,3.261 118.874,3.306 z M8.735,11.968 C18.237,12.223 27.769,11.964 37.284,12.057 C62.133,12.131 86.983,11.873 111.831,12.222 C113.792,13.67 112.784,17.53 113.008,20.146 C112.947,50.141 113.136,80.169 112.903,110.144 C111.87,113.255 109.335,111.484 107.59,111.937 C74.393,111.87 41.189,112.041 7.996,111.848 C6.046,110.847 6.773,107.063 6.672,104.675 C6.764,74.362 6.488,44.012 6.818,13.723 C7.148,12.541 7.954,12.003 8.735,11.968 z" fill="url(#Gradient_4)" id="path4905"/>
    <path d="M118.886,1.616 C110.957,1.927 103.018,1.611 95.085,1.733 C63.796,1.769 32.493,1.653 1.212,1.811 C0.548,3.345 1.369,5.471 1.035,7.234 C1.035,16.189 1.035,25.143 1.035,34.098 C3.198,35.641 5.364,37.173 7.571,38.545 C7.677,29.751 7.309,20.886 7.765,12.136 C8.912,9.297 11.242,11.067 12.939,10.589 C45.871,10.62 78.809,10.487 111.737,10.68 C113.677,11.696 112.961,15.572 113.058,18.026 C113.058,30.375 113.058,42.724 113.058,55.073 C115.326,54.821 117.59,54.5 119.853,54.162 C119.765,36.736 120.026,19.223 119.724,1.85 C119.484,1.592 119.165,1.584 118.886,1.616 z" fill="url(#Gradient_5)" id="path4909-8"/>
    <path d="M5.856,7.845 C5.321,7.845 4.897,8.527 4.897,9.372 L4.897,107.458 C4.897,108.302 5.321,108.985 5.856,108.985 L7.758,108.985 L7.758,14.256 C7.758,13.439 8.175,12.78 8.693,12.78 L111.174,12.78 C111.691,12.78 112.109,13.439 112.109,14.256 L112.109,108.985 L114.132,108.985 C114.667,108.985 115.099,108.302 115.099,107.458 L115.099,9.372 C115.099,8.527 114.667,7.845 114.132,7.845 L5.856,7.845 z" fill="url(#Gradient_6)" id="path4907"/>
    <path d="M113.376,103.363 C113.358,105.882 113.828,109.238 112.308,110.958 C110.962,112.207 109.322,111.235 107.854,111.558 C76.082,111.714 44.308,111.621 12.536,111.616 C10.815,111.31 8.683,112.615 7.291,110.384 C6.376,108.789 6.88,106.473 6.645,104.542 C6.495,97.941 6.682,91.337 6.641,84.735 C4.861,85.857 3.11,87.052 1.352,88.28 C1.366,97.401 1.311,106.56 1.406,115.659 C1.345,116.516 1.186,117.381 1.304,118.224 C39.043,118.401 76.782,118.234 114.521,118.321 C115.946,118.339 117.37,118.367 118.795,118.369 C119.072,101.888 118.824,85.401 118.907,68.917 C117.065,68.642 115.221,68.391 113.376,68.182 C113.376,79.909 113.376,91.636 113.376,103.363 z" fill="url(#Gradient_7)" id="path4909"/>
  </g>
  <defs>
    <radialGradient id="Gradient_1" gradientUnits="userSpaceOnUse" cx="108.709" cy="14.562" r="97.737">
      <stop offset="0" stop-color="#729FCF" stop-opacity="0.208"/>
      <stop offset="1" stop-color="#729FCF" stop-opacity="0.676"/>
    </radialGradient>
    <linearGradient id="Gradient_2" gradientUnits="userSpaceOnUse" x1="42.579" y1="111.697" x2="44.692" y2="6.119" gradientTransform="matrix(1.633, 0, 0, 1.656, -17.173, -21.392)">
      <stop offset="0" stop-color="#000000"/>
      <stop offset="1" stop-color="#000000" stop-opacity="0"/>
    </linearGradient>
    <linearGradient id="Gradient_3" gradientUnits="userSpaceOnUse" x1="81.834" y1="291.504" x2="80.579" y2="383.323" gradientTransform="matrix(1.706, 0, 0, 1.732, -80.946, -554.149)">
      <stop offset="0" stop-color="#000000"/>
      <stop offset="1" stop-color="#000000" stop-opacity="0"/>
    </linearGradient>
    <linearGradient id="Gradient_4" gradientUnits="userSpaceOnUse" x1="47.707" y1="96.764" x2="48.334" y2="58.155" gradientTransform="matrix(1.674, 0, 0, 1.661, -24.902, -12.615)">
      <stop offset="0" stop-color="#2B0000"/>
      <stop offset="1" stop-color="#2B0000" stop-opacity="0"/>
    </linearGradient>
    <linearGradient id="Gradient_5" gradientUnits="userSpaceOnUse" x1="37.361" y1="-0.511" x2="35.322" y2="50.347" gradientTransform="matrix(1.661, 0, 0, 1.661, -18.558, -14.636)">
      <stop offset="0" stop-color="#FFFFFF"/>
      <stop offset="1" stop-color="#FFFFFF" stop-opacity="0"/>
    </linearGradient>
    <linearGradient id="Gradient_6" gradientUnits="userSpaceOnUse" x1="-34.554" y1="253.35" x2="-37.691" y2="328.587" gradientTransform="matrix(1, 0, 0, 1, 93.802, -285.212)">
      <stop offset="0" stop-color="#3163A6"/>
      <stop offset="1" stop-color="#3163A6" stop-opacity="0"/>
    </linearGradient>
    <linearGradient id="Gradient_7" gradientUnits="userSpaceOnUse" x1="38.388" y1="233.302" x2="38.804" y2="255.932" gradientTransform="matrix(1.661, 0, 0, -1.661, -20.578, 523.7)">
      <stop offset="0" stop-color="#FFFFFF"/>
      <stop offset="1" stop-color="#FFFFFF" stop-opacity="0"/>
    </linearGradient>
  </defs>
</svg>
