<?xml version="1.0" encoding="UTF-8"?>
<!DOCTYPE svg PUBLIC "-//W3C//DTD SVG 1.1//EN" "http://www.w3.org/Graphics/SVG/1.1/DTD/svg11.dtd">
<svg version="1.1" xmlns="http://www.w3.org/2000/svg" xmlns:xlink="http://www.w3.org/1999/xlink" x="0px" y="0px" width="500" height="500" viewBox="0, 0, 500, 500">
  <g id="Calque 43">
    <path d="M389.194,254.874 L352.621,218.298 L340.051,205.728 L327.481,218.298 L230.829,314.954 C228.38,317.294 219.802,323.68 210.89,323.68 C204.914,323.68 199.15,320.821 193.279,314.944 C185.101,306.776 182.809,299.094 185.821,290.045 C188.26,282.731 193.228,277.453 193.283,277.405 L289.929,180.755 L302.505,168.182 L289.929,155.609 L253.359,119.036 L240.79,106.46 L228.217,119.036 L131.57,215.693 C110.067,237.18 98.227,265.767 98.227,296.171 C98.227,326.583 110.067,355.169 131.57,376.66 C153.067,398.16 181.651,410 212.056,410 C242.46,410 271.047,398.16 292.544,376.66 L389.194,280.017 L401.773,267.444 L389.194,254.874 z M279.968,364.093 C261.217,382.844 236.632,392.229 212.052,392.229 C187.47,392.229 162.894,382.844 144.137,364.093 C106.626,326.586 106.626,265.763 144.137,228.262 L192.274,180.121 L228.85,216.694 L180.706,264.835 C180.706,264.835 149.367,296.181 180.706,327.527 C191.16,337.981 201.611,341.46 210.894,341.46 C229.471,341.46 243.398,327.527 243.398,327.527 L293.76,277.165 L330.333,313.738 L279.968,364.093 z" fill="#E5E5E5"/>
    <path d="M389.38,170.218 L353.985,203.27 L364.036,213.551 L425.93,154.457 L378.032,154.457 L426.671,112.427 L375.762,112.427 L412.996,71.542 L402.309,60 L342.259,122.935 L388.639,122.935 L340,170.218 z" fill="#E5E5E5"/>
  </g>
  <defs/>
</svg>
