<?xml version="1.0" encoding="UTF-8"?>
<!DOCTYPE svg PUBLIC "-//W3C//DTD SVG 1.1//EN" "http://www.w3.org/Graphics/SVG/1.1/DTD/svg11.dtd">
<svg version="1.1" xmlns="http://www.w3.org/2000/svg" xmlns:xlink="http://www.w3.org/1999/xlink" x="0" y="0" width="500" height="500" viewBox="0, 0, 500, 500">
  <g id="Calque_2">
    <g id="path2299">
      <path d="M249.025,82.31 C227.938,82.31 210.799,99.653 210.799,121.059 C210.799,136.82 220.095,150.397 233.405,156.461 L233.006,176.542 L130.405,176.542 L130.405,197.773 L232.557,197.773 L229.463,351.67 C229.401,354.776 229.491,386.051 188.492,364.43 C147.38,342.749 170.614,318.19 173.371,317.471 C149.218,309.671 127.326,288.001 109.645,265.753 C92.291,305.401 123.366,347.728 124.865,353.762 C128.595,349.582 134.17,350.246 137.591,350.834 C179.44,417.69 234.301,409.685 249.025,428.384 C263.748,409.685 318.56,417.69 360.409,350.834 C363.83,350.246 369.405,349.582 373.135,353.762 C374.634,347.728 405.709,305.401 388.355,265.753 C370.674,288.001 348.782,309.671 324.629,317.471 C327.386,318.19 350.62,342.749 309.508,364.43 C268.509,386.051 268.599,354.776 268.537,351.67 L265.443,197.773 L367.595,197.773 L367.595,176.542 L264.994,176.542 L264.595,156.461 C277.905,150.397 287.201,136.82 287.201,121.059 C287.201,99.653 270.112,82.31 249.025,82.31 z M249.025,106.888 C256.493,106.888 262.549,113.233 262.549,121.059 C262.549,128.885 256.493,135.23 249.025,135.23 C241.557,135.23 235.451,128.885 235.451,121.059 C235.451,113.233 241.557,106.888 249.025,106.888 z" fill="#E5E5E5"/>
      <path d="M249.025,82.31 C227.938,82.31 210.799,99.653 210.799,121.059 C210.799,136.82 220.095,150.397 233.405,156.461 L233.006,176.542 L130.405,176.542 L130.405,197.773 L232.557,197.773 L229.463,351.67 C229.401,354.776 229.491,386.051 188.492,364.43 C147.38,342.749 170.614,318.19 173.371,317.471 C149.218,309.671 127.326,288.001 109.645,265.753 C92.291,305.401 123.366,347.728 124.865,353.762 C128.595,349.582 134.17,350.246 137.591,350.834 C179.44,417.69 234.301,409.685 249.025,428.384 C263.748,409.685 318.56,417.69 360.409,350.834 C363.83,350.246 369.405,349.582 373.135,353.762 C374.634,347.728 405.709,305.401 388.355,265.753 C370.674,288.001 348.782,309.671 324.629,317.471 C327.386,318.19 350.62,342.749 309.508,364.43 C268.509,386.051 268.599,354.776 268.537,351.67 L265.443,197.773 L367.595,197.773 L367.595,176.542 L264.994,176.542 L264.595,156.461 C277.905,150.397 287.201,136.82 287.201,121.059 C287.201,99.653 270.112,82.31 249.025,82.31 z M249.025,106.888 C256.493,106.888 262.549,113.233 262.549,121.059 C262.549,128.885 256.493,135.23 249.025,135.23 C241.557,135.23 235.451,128.885 235.451,121.059 C235.451,113.233 241.557,106.888 249.025,106.888 z" fill-opacity="0" stroke="#E5E5E5" stroke-width="6"/>
    </g>
    <path d="M112.5,387 L387.5,113" fill-opacity="0" stroke="#363636" stroke-width="54"/>
  </g>
</svg>
