<?xml version="1.0" encoding="UTF-8"?>
<!DOCTYPE svg PUBLIC "-//W3C//DTD SVG 1.1//EN" "http://www.w3.org/Graphics/SVG/1.1/DTD/svg11.dtd">
<svg version="1.1" xmlns="http://www.w3.org/2000/svg" xmlns:xlink="http://www.w3.org/1999/xlink" x="0px" y="0px" width="500" height="500" viewBox="0, 0, 500, 500">
  <g id="Calque 42">
    <path d="M395,177.5 C395,137.48 362.502,105 322.5,105 C295.457,105 272.094,120.026 259.624,142.029 C259.624,142.011 259.661,141.993 259.661,141.975 C256.335,141.658 253.108,140.969 249.71,140.969 C189.635,140.969 140.96,189.644 140.96,249.719 C140.96,272.62 148.11,293.826 160.182,311.317 L105,395 L189.182,340.063 C206.491,351.672 227.307,358.469 249.719,358.469 C309.794,358.469 358.469,309.794 358.469,249.719 C358.469,246.583 357.835,243.647 357.545,240.584 C379.775,228.196 395,204.742 395,177.5 z M249.719,322.219 C209.717,322.219 177.219,289.721 177.219,249.719 C177.219,209.735 209.717,177.219 249.719,177.219 C249.828,177.219 249.928,177.255 250,177.255 C250,177.183 250.036,177.128 250.036,177.074 C250.036,177.219 250,177.355 250,177.5 C250,183.798 251.06,189.78 252.547,195.607 L223.8,224.371 C209.645,238.527 209.645,261.473 223.8,275.629 C237.956,289.784 260.902,289.784 275.058,275.629 L303.523,247.163 C309.504,248.795 315.703,249.928 322.183,249.964 C322.038,289.857 289.612,322.219 249.719,322.219 z M322.5,213.75 C302.535,213.75 286.25,197.483 286.25,177.5 C286.25,157.517 302.535,141.25 322.5,141.25 C342.465,141.25 358.75,157.517 358.75,177.5 C358.75,197.483 342.465,213.75 322.5,213.75 z" fill="#E5E5E5"/>
  </g>
  <defs/>
</svg>
