<?xml version="1.0" encoding="UTF-8" standalone="no"?>
<!-- Created with Inkscape (http://www.inkscape.org/) -->

<svg
   xmlns:dc="http://purl.org/dc/elements/1.1/"
   xmlns:cc="http://creativecommons.org/ns#"
   xmlns:rdf="http://www.w3.org/1999/02/22-rdf-syntax-ns#"
   xmlns:svg="http://www.w3.org/2000/svg"
   xmlns="http://www.w3.org/2000/svg"
   xmlns:sodipodi="http://sodipodi.sourceforge.net/DTD/sodipodi-0.dtd"
   xmlns:inkscape="http://www.inkscape.org/namespaces/inkscape"
   width="60"
   height="20"
   viewBox="0 0 60 20"
   id="svg4815"
   version="1.1"
   inkscape:version="0.91 r"
   sodipodi:docname="spring_const.svg">
  <defs
     id="defs4817" />
  <sodipodi:namedview
     id="base"
     pagecolor="#ffffff"
     bordercolor="#666666"
     borderopacity="1.0"
     inkscape:pageopacity="0.0"
     inkscape:pageshadow="2"
     inkscape:zoom="16"
     inkscape:cx="10.409511"
     inkscape:cy="-11.022879"
     inkscape:document-units="px"
     inkscape:current-layer="layer1"
     showgrid="false"
     units="px"
     inkscape:window-width="2560"
     inkscape:window-height="1280"
     inkscape:window-x="0"
     inkscape:window-y="64"
     inkscape:window-maximized="1" />
  <metadata
     id="metadata4820">
    <rdf:RDF>
      <cc:Work
         rdf:about="">
        <dc:format>image/svg+xml</dc:format>
        <dc:type
           rdf:resource="http://purl.org/dc/dcmitype/StillImage" />
        <dc:title />
      </cc:Work>
    </rdf:RDF>
  </metadata>
  <g
     inkscape:label="Calque 1"
     inkscape:groupmode="layer"
     id="layer1"
     transform="translate(0,-1032.3622)">
    <g
       id="g4184"
       transform="translate(-0.160156,-19.40235)">
      <path
         sodipodi:nodetypes="csssssssssssssssssssssssssssssssssssscc"
         style="fill:none;stroke:#787878;stroke-width:0.52619928;stroke-linecap:butt;stroke-linejoin:round;stroke-miterlimit:2;stroke-dasharray:none;stroke-opacity:0.58823529"
         inkscape:connector-curvature="0"
         stroke-miterlimit="2"
         id="svg_18-9"
         d="m 26.819864,1068.5962 c 1.35079,0 2.445181,-3.4658 2.445181,-7.7404 0,-2.4447 -0.309312,-6.0442 -0.917715,-6.0442 -0.68806,0 -0.943624,3.627 -0.943624,6.1093 0,4.2757 1.09452,7.7405 2.444795,7.7405 1.350341,0 2.444925,-3.4648 2.444925,-7.7405 0,-2.4447 -0.3205,-6.0441 -0.917715,-6.0441 -0.656364,0 -0.94356,3.6269 -0.94356,6.1103 0,4.2747 1.094455,7.7406 2.444796,7.7406 1.350276,0 2.445181,-3.4659 2.445181,-7.7406 0,-2.4457 -0.309248,-6.0441 -0.917715,-6.0441 -0.688125,0 -0.941824,3.5264 -0.941824,6.0989 0,4.2553 1.094777,7.7406 2.445246,7.7406 1.350276,0 2.444474,-3.4659 2.444474,-7.7406 0,-2.4834 -0.255499,-6.1092 -0.943239,-6.1092 -0.608788,0 -0.917779,3.5984 -0.917779,6.0442 0,4.2746 1.09452,7.7404 2.444925,7.7404 1.35034,0 2.444795,-3.4658 2.444795,-7.7404 0,-2.4835 -0.286938,-6.1093 -0.943624,-6.1093 -0.597216,0 -0.917779,3.5984 -0.917779,6.0441 0,4.2747 1.094519,7.7394 2.44531,7.7394 1.349633,0 2.44441,-3.4647 2.44441,-7.7394 0,-2.4834 -0.255435,-6.1104 -0.943239,-6.1104 -0.609045,0 -0.92453,1.7273 -0.92453,6.0442 0,4.3169 1.09452,7.7405 2.444796,7.7405 1.35034,0 2.44531,-3.4659 2.44531,-7.7405 0,-2.4458 -0.309377,-6.0442 -0.917779,-6.0442 -0.688061,0 -0.943624,3.627 -0.943624,6.1104 0,4.2747 1.094519,7.7394 2.444795,7.7394 1.350469,0 2.44531,-3.4647 2.44531,-7.7394 0,-2.4457 -0.320435,-6.0441 -0.91765,-6.0441 -0.657136,0 -0.944075,3.6258 -0.944075,6.1093 0,4.2746 1.094777,7.7404 2.445246,7.7404 1.35034,0 2.444796,-3.4658 2.444796,-7.7404 0,-2.4458 -0.309184,-6.0442 -0.917265,-6.0442 -0.688511,0 -0.944074,3.6258 -0.944074,6.1092 0,4.2747 1.094519,7.7406 2.445245,7.7406 1.350302,0 2.444918,-3.4659 2.508716,-7.9416 l 3.419891,0" />
      <path
         sodipodi:nodetypes="ccssssssssssssssssssssssssssssc"
         style="fill:none;stroke:#787878;stroke-width:0.52619928;stroke-linecap:butt;stroke-linejoin:round;stroke-miterlimit:2;stroke-dasharray:none;stroke-opacity:0.58823529"
         inkscape:connector-curvature="0"
         stroke-miterlimit="2"
         id="svg_18-9-3"
         d="m 0.319115,1060.8011 2.860963,0 c 0,4.2746 1.094519,7.7404 2.444474,7.7404 1.35079,0 2.445181,-3.4658 2.445181,-7.7404 0,-2.4447 -0.309312,-6.0442 -0.917715,-6.0442 -0.68806,0 -0.943624,3.627 -0.943624,6.1093 0,4.2757 1.09452,7.7405 2.444796,7.7405 1.35034,0 2.444924,-3.4648 2.444924,-7.7405 0,-2.4447 -0.3205,-6.0441 -0.917715,-6.0441 -0.656364,0 -0.94356,3.6269 -0.94356,6.1103 0,4.2747 1.094455,7.7406 2.444796,7.7406 1.350276,0 2.445181,-3.4659 2.445181,-7.7406 0,-2.4457 -0.309248,-6.0441 -0.917715,-6.0441 -0.688125,0 -0.941824,3.5264 -0.941824,6.0989 0,4.2553 1.094777,7.7406 2.445246,7.7406 1.350276,0 2.444474,-3.4659 2.444474,-7.7406 0,-2.4834 -0.255499,-6.1092 -0.943239,-6.1092 -0.608788,0 -0.917779,3.5984 -0.917779,6.0442 0,4.2746 1.09452,7.7404 2.444925,7.7404 1.35034,0 2.444795,-3.4658 2.444795,-7.7404 0,-2.4835 -0.286938,-6.1093 -0.943624,-6.1093 -0.597216,0 -0.917779,3.5984 -0.917779,6.0441 0,4.2747 1.094519,7.7394 2.44531,7.7394 1.349633,0 2.44441,-3.4647 2.44441,-7.7394 0,-2.4834 -0.255435,-6.1104 -0.943239,-6.1104 -0.609045,0 -0.92453,1.7273 -0.92453,6.0442 0,4.3169 1.09452,7.7405 2.444796,7.7405 1.35034,0 2.44531,-3.4659 2.44531,-7.7405 0,-2.4458 -0.309377,-6.0442 -0.917779,-6.0442 -0.688061,0 -0.943624,3.627 -0.943624,6.1104 0,4.2747 1.094519,7.7394 2.444795,7.7394" />
    </g>
  </g>
</svg>
