<?xml version="1.0" encoding="UTF-8" standalone="no"?>
<!-- Created with Inkscape (http://www.inkscape.org/) -->

<svg
   xmlns:dc="http://purl.org/dc/elements/1.1/"
   xmlns:cc="http://creativecommons.org/ns#"
   xmlns:rdf="http://www.w3.org/1999/02/22-rdf-syntax-ns#"
   xmlns:svg="http://www.w3.org/2000/svg"
   xmlns="http://www.w3.org/2000/svg"
   xmlns:sodipodi="http://sodipodi.sourceforge.net/DTD/sodipodi-0.dtd"
   xmlns:inkscape="http://www.inkscape.org/namespaces/inkscape"
   width="500"
   height="500"
   id="svg15810"
   sodipodi:version="0.32"
   inkscape:version="0.91 r"
   sodipodi:docname="spring.svg"
   version="1.1">
  <defs
     id="defs15812" />
  <sodipodi:namedview
     id="base"
     pagecolor="#ffffff"
     bordercolor="#666666"
     borderopacity="1.0"
     inkscape:pageopacity="0.0"
     inkscape:pageshadow="2"
     inkscape:zoom="0.92807765"
     inkscape:cx="42.586773"
     inkscape:cy="165.48186"
     inkscape:current-layer="layer1"
     showgrid="true"
     inkscape:grid-bbox="false"
     inkscape:document-units="px"
     inkscape:window-width="1517"
     inkscape:window-height="1064"
     inkscape:window-x="805"
     inkscape:window-y="238"
     inkscape:window-maximized="0" />
  <metadata
     id="metadata15815">
    <rdf:RDF>
      <cc:Work
         rdf:about="">
        <dc:format>image/svg+xml</dc:format>
        <dc:type
           rdf:resource="http://purl.org/dc/dcmitype/StillImage" />
        <dc:title />
      </cc:Work>
    </rdf:RDF>
  </metadata>
  <g
     id="layer1"
     inkscape:label="Layer 1"
     inkscape:groupmode="layer"
     transform="translate(0,452)">
    <g
       id="g4175"
       transform="translate(-7.4873489,2.3750995)"
       style="fill:#e5e5e5;fill-opacity:1;stroke-width:0.1;stroke-miterlimit:4;stroke-dasharray:none">
      <path
         inkscape:connector-curvature="0"
         inkscape:transform-center-y="17.580177"
         inkscape:transform-center-x="-4.0124026"
         sodipodi:nodetypes="ccsss"
         d="m 367.62458,-67.099371 c -30.25108,-22.140294 -97.51909,-10.955915 -148.35085,-2.472797 -12.01692,5.241356 -5.69081,35.317871 6.68201,33.304395 50.06844,-8.147802 86.63443,-22.172018 122.50742,-2.503907 17.56873,9.632435 33.80033,-17.613683 19.16142,-28.327691 z"
         style="fill:#e5e5e5;fill-opacity:1;fill-rule:evenodd;stroke:#e5e5e5;stroke-width:0.1;stroke-linecap:butt;stroke-linejoin:miter;stroke-miterlimit:4;stroke-dasharray:none;stroke-opacity:1"
         id="path16040" />
      <path
         inkscape:connector-curvature="0"
         inkscape:transform-center-y="11.055793"
         inkscape:transform-center-x="0.51700504"
         sodipodi:nodetypes="csssscss"
         d="m 309.46222,-138.4899 c 6.68845,17.04181 -73.46707,55.737638 -93.2044,70.741332 -13.19365,10.029398 -3.13002,39.128009 14.29178,31.01024 24.43999,-11.387932 98.47384,-51.957177 115.00273,-94.214662 3.55024,-9.07645 -3.87578,-31.06253 -14.44255,-37.5552 -20.17074,-12.39373 -85.33714,-7.98587 -147.18498,-1.48174 -12.01692,5.24137 -4.98834,31.04024 4.2464,32.36256 38.74253,5.54759 115.79419,-14.86815 121.29102,-0.86253 z"
         style="color:#000000;display:inline;overflow:visible;visibility:visible;opacity:1;fill:#e5e5e5;fill-opacity:1;fill-rule:evenodd;stroke:#e5e5e5;stroke-width:0.1;stroke-linecap:butt;stroke-linejoin:miter;stroke-miterlimit:4;stroke-dasharray:none;stroke-dashoffset:0;stroke-opacity:1;marker:none;marker-start:none;marker-mid:none;marker-end:none"
         id="path16036" />
      <path
         inkscape:connector-curvature="0"
         inkscape:transform-center-y="-2.6335566"
         inkscape:transform-center-x="5.0863016"
         sodipodi:nodetypes="csssscss"
         d="m 315.17021,-230.01149 c -28.50689,40.37397 -101.8923,78.4935 -120.32443,91.50078 -12.03335,8.49173 -24.20173,-16.30708 -18.12863,-24.75098 16.9577,-23.57758 103.41335,-66.42733 99.08542,-77.34721 -4.22966,-10.67195 -82.52678,8.08348 -123.97908,0.17782 -9.18417,-1.75158 -14.70732,-25.6618 -2.6904,-30.90317 63.89092,-0.49888 99.47859,-9.26687 149.70703,0.98861 16.0891,3.28503 26.17005,26.39791 16.33009,40.33415 z"
         style="color:#000000;display:inline;overflow:visible;visibility:visible;opacity:1;fill:#e5e5e5;fill-opacity:1;fill-rule:evenodd;stroke:#e5e5e5;stroke-width:0.1;stroke-linecap:butt;stroke-linejoin:miter;stroke-miterlimit:4;stroke-dasharray:none;stroke-dashoffset:0;stroke-opacity:1;marker:none;marker-start:none;marker-mid:none;marker-end:none"
         id="path16032" />
      <path
         inkscape:connector-curvature="0"
         inkscape:transform-center-y="-16.315682"
         inkscape:transform-center-x="8.1062525"
         sodipodi:nodetypes="cscssc"
         d="m 262.97883,-371.66648 c 7.53654,4.45608 19.05645,20.5181 13.45379,33.54612 -18.71585,43.52034 -87.2291,67.53921 -116.65941,98.67657 -12.53574,3.71639 -21.13912,-17.31153 -16.60941,-25.82499 18.38795,-34.55957 106.84025,-71.62371 99.68998,-82.90198 -9.14066,-14.41774 8.12098,-30.36024 20.12505,-23.49572 z"
         style="fill:#e5e5e5;fill-opacity:1;fill-rule:evenodd;stroke:#e5e5e5;stroke-width:0.1;stroke-linecap:butt;stroke-linejoin:miter;stroke-miterlimit:4;stroke-dasharray:none;stroke-opacity:1"
         id="path16025" />
    </g>
  </g>
</svg>
