<?xml version="1.0" encoding="UTF-8"?>
<!DOCTYPE svg PUBLIC "-//W3C//DTD SVG 1.1//EN" "http://www.w3.org/Graphics/SVG/1.1/DTD/svg11.dtd">
<svg version="1.1" xmlns="http://www.w3.org/2000/svg" xmlns:xlink="http://www.w3.org/1999/xlink" x="0px" y="0px" width="500" height="500" viewBox="0, 0, 500, 500">
  <g id="symc">
    <g>
      <path d="M250,310 C216.863,310 190,283.137 190,250 C190,216.863 216.863,190 250,190 C283.137,190 310,216.863 310,250 C310,283.137 283.137,310 250,310 z" fill="#CFCFCF"/>
      <path d="M110.448,449.998 C77.312,450.246 50.249,423.584 50.002,390.448 C49.754,357.312 76.416,330.249 109.552,330.002 C142.688,329.754 169.751,356.416 169.998,389.552 C170.246,422.688 143.584,449.751 110.448,449.998 z" fill="#CFCFCF"/>
      <path d="M390,170 C356.863,170 330,143.137 330,110 C330,76.863 356.863,50 390,50 C423.137,50 450,76.863 450,110 C450,143.137 423.137,170 390,170 z" fill="#FFFFFF"/>
    </g>
  </g>
  <defs/>
</svg>
