<?xml version="1.0" encoding="UTF-8"?>
<!DOCTYPE svg PUBLIC "-//W3C//DTD SVG 1.1//EN" "http://www.w3.org/Graphics/SVG/1.1/DTD/svg11.dtd">
<svg version="1.1" xmlns="http://www.w3.org/2000/svg" xmlns:xlink="http://www.w3.org/1999/xlink" x="0px" y="0px" width="32" height="32" viewBox="0, 0, 32, 32">
  <g id="Layer 1 Copy">
    <path d="M7.375,14.5 L7.375,26.667 L24.625,26.667 L24.625,14.5" fill="#333333"/>
    <path d="M11.625,12.734 C11.625,12.734 11.625,15.547 11.625,15.547 C11.625,15.547 9.75,15.547 9.75,15.547 C9.75,15.547 9.75,14.284 9.75,12.734 C9.75,9.283 12.548,6.484 16,6.484 C19.452,6.484 22.25,9.283 22.25,12.734 C22.25,13.553 22.25,15.547 22.25,15.547 C22.25,15.547 20.375,15.547 20.375,15.547 C20.375,15.547 20.375,12.734 20.375,12.734 C20.375,12.734 20.031,8.391 16,8.391 C12,8.391 11.625,12.734 11.625,12.734 z" fill="#333333"/>
    <path d="M7.734,12.734" fill="#333333"/>
  </g>
  <defs/>
</svg>
