<?xml version="1.0" encoding="UTF-8"?>
<!DOCTYPE svg PUBLIC "-//W3C//DTD SVG 1.1//EN" "http://www.w3.org/Graphics/SVG/1.1/DTD/svg11.dtd">
<svg version="1.1" xmlns="http://www.w3.org/2000/svg" xmlns:xlink="http://www.w3.org/1999/xlink" x="0px" y="0px" width="32" height="32" viewBox="0, 0, 32, 32">
  <g id="Layer 1 Copy Copy">
    <path d="M7.375,14.5 L7.375,26.667 L24.625,26.667 L24.625,14.5" fill="#959595"/>
    <path d="M15.633,6.887 C15.633,6.887 13.644,8.876 13.644,8.876 C13.644,8.876 12.319,7.55 12.319,7.55 C12.319,7.55 13.211,6.657 14.307,5.562 C16.748,3.121 20.705,3.121 23.146,5.562 C25.587,8.002 25.587,11.96 23.146,14.4 C22.568,14.979 21.157,16.389 21.157,16.389 C21.157,16.389 19.832,15.063 19.832,15.063 C19.832,15.063 21.82,13.075 21.82,13.075 C21.82,13.075 24.649,9.76 21.798,6.909 C18.97,4.081 15.633,6.887 15.633,6.887 z" fill="#959595"/>
    <path d="M7.734,12.734" fill="#333333"/>
  </g>
  <defs/>
</svg>
