<?xml version="1.0" encoding="UTF-8"?>
<!DOCTYPE svg PUBLIC "-//W3C//DTD SVG 1.1//EN" "http://www.w3.org/Graphics/SVG/1.1/DTD/svg11.dtd">
<svg version="1.1" xmlns="http://www.w3.org/2000/svg" xmlns:xlink="http://www.w3.org/1999/xlink" x="0px" y="0px" width="768" height="768" viewBox="0, 0, 768, 768">
  <g id="Layer 4">
    <g>
      <g>
        <g>
          <path d="M384.015,753.106 C180.458,753.106 14.865,587.519 14.865,383.97 C14.865,180.421 180.458,14.834 384.015,14.834 C587.542,14.834 753.135,180.421 753.135,383.97 C753.135,587.519 587.542,753.106 384.015,753.106 L384.015,753.106 z" fill="#FCFDFD"/>
          <path d="M384.015,29.728 C579.664,29.728 738.271,188.329 738.271,384 C738.271,579.671 579.664,738.272 384.015,738.272 C188.336,738.272 29.729,579.671 29.729,384 C29.729,188.329 188.335,29.728 384.015,29.728 M384.015,-0 C172.252,-0 0,172.246 0,384 C0,595.754 172.252,768 384.015,768 C595.748,768 768,595.754 768,384 C768,172.246 595.748,-0 384.015,-0 L384.015,-0 z" fill="#B4B4B3"/>
        </g>
        <g>
          <path d="M384,654.037 C235.115,654.037 113.967,532.893 113.967,384.014 C113.967,235.107 235.115,113.963 384,113.963 C532.885,113.963 654.033,235.107 654.033,384.014 C654.033,532.924 532.885,654.037 384,654.037 L384,654.037 z" fill="#4D73B9"/>
          <path d="M384,121.395 C529.051,121.395 646.6,238.971 646.6,384.014 C646.6,529.029 529.051,646.605 384,646.605 C238.949,646.605 121.4,529.029 121.4,384.014 C121.4,239 238.949,121.395 384,121.395 M384,106.531 C231.012,106.531 106.535,231.004 106.535,384.014 C106.535,536.996 231.012,661.469 384,661.469 C536.988,661.469 661.465,536.996 661.465,384.014 C661.465,231.033 536.988,106.531 384,106.531 L384,106.531 z" fill="#33318A"/>
        </g>
        <g opacity="0.7">
          <path d="M378.946,385.011 C472.415,385.011 558.066,351.388 624.987,295.379 C587.974,195.284 491.918,123.818 378.946,123.818 C265.975,123.818 169.918,195.315 132.905,295.379 C199.826,351.36 285.506,385.011 378.946,385.011 z" fill="url(#Gradient_1)"/>
        </g>
      </g>
      <g>
        <path d="M341.22,178.385 L427.969,178.385 L427.969,565.951 L341.22,565.951 z" fill="#585D67"/>
        <path d="M178.347,329.077 L590.843,329.077 L590.843,413.475 L178.347,413.475 z" fill="#585D67"/>
        <path d="M341.22,198.957 L427.969,198.957 L427.969,586.523 L341.22,586.523 z" fill="#FEFFFF"/>
        <path d="M178.347,349.619 L590.843,349.619 L590.843,434.017 L178.347,434.017 z" fill="#FEFFFF"/>
      </g>
    </g>
  </g>
  <defs>
    <linearGradient id="Gradient_1" gradientUnits="userSpaceOnUse" x1="378.948" y1="123.803" x2="378.948" y2="385.002">
      <stop offset="0" stop-color="#FFFFFF"/>
      <stop offset="1" stop-color="#82A5D8" stop-opacity="0.794"/>
    </linearGradient>
  </defs>
</svg>
